<?xml version="1.0" encoding="UTF-8" standalone="no"?>
<!-- Created with Inkscape (http://www.inkscape.org/) -->

<svg
   width="8.4666662mm"
   height="8.4666662mm"
   viewBox="0 0 8.4666662 8.4666662"
   version="1.1"
   id="svg1"
   inkscape:export-filename="prob.svg"
   inkscape:export-xdpi="96"
   inkscape:export-ydpi="96"
   xml:space="preserve"
   inkscape:version="1.4.2 (ebf0e94, 2025-05-08)"
   sodipodi:docname="all_together.svg"
   xmlns:inkscape="http://www.inkscape.org/namespaces/inkscape"
   xmlns:sodipodi="http://sodipodi.sourceforge.net/DTD/sodipodi-0.dtd"
   xmlns="http://www.w3.org/2000/svg"
   xmlns:svg="http://www.w3.org/2000/svg"><sodipodi:namedview
     id="namedview1"
     pagecolor="#505050"
     bordercolor="#eeeeee"
     borderopacity="1"
     inkscape:showpageshadow="0"
     inkscape:pageopacity="0"
     inkscape:pagecheckerboard="0"
     inkscape:deskcolor="#505050"
     inkscape:document-units="mm"
     inkscape:zoom="11.313709"
     inkscape:cx="69.738406"
     inkscape:cy="6.1871843"
     inkscape:window-width="1920"
     inkscape:window-height="1008"
     inkscape:window-x="0"
     inkscape:window-y="0"
     inkscape:window-maximized="1"
     inkscape:current-layer="layer1" /><defs
     id="defs1"><marker
       style="overflow:visible"
       id="ConcaveTriangle"
       refX="0"
       refY="0"
       orient="auto-start-reverse"
       inkscape:stockid="Concave triangle arrow"
       markerWidth="1"
       markerHeight="1"
       viewBox="0 0 1 1"
       inkscape:isstock="true"
       inkscape:collect="always"
       preserveAspectRatio="xMidYMid"><path
         d="M -1.4,-2.8 6.3,0 -1.4,2.8 C 0,1.169 0,-1.162 -1.4,-2.8 Z"
         style="fill:context-stroke;fill-rule:evenodd;stroke:none;stroke-width:0.7"
         id="path16" /></marker></defs><g
     inkscape:label="Capa 1"
     inkscape:groupmode="layer"
     id="layer1"
     transform="translate(-38.322578,-63.748138)"><g
       id="g18"
       transform="translate(9.7730406)"><text
         xml:space="preserve"
         style="font-style:normal;font-variant:normal;font-weight:normal;font-stretch:normal;font-size:2.49658px;font-family:'Noto Sans Brahmi';-inkscape-font-specification:'Noto Sans Brahmi';text-align:start;writing-mode:lr-tb;direction:ltr;text-anchor:start;fill:#5c0d07;fill-opacity:1;stroke:none;stroke-width:0.314529;stroke-linecap:round;stroke-dasharray:none;stroke-opacity:1"
         x="38.508972"
         y="68.917686"
         id="text18"><tspan
           sodipodi:role="line"
           id="tspan18"
           style="fill:#5c0d07;fill-opacity:1;stroke-width:0.314529"
           x="38.508972"
           y="68.917686">Oxides</tspan></text><path
         id="rect17"
         style="fill:#ff2a24;fill-opacity:0.681945;stroke:none;stroke-width:0.406667;stroke-linecap:round;stroke-dasharray:none;stroke-opacity:1"
         d="m 39.480646,64.566759 c -0.08665,10e-7 -0.173379,0.03334 -0.239778,0.09974 -0.132798,0.132798 -0.132798,0.34676 0,0.479557 l 2.835486,2.835487 -2.835486,2.835486 c -0.132798,0.132797 -0.132798,0.346759 0,0.479557 0.132797,0.132797 0.346759,0.132797 0.479557,0 l 2.835486,-2.835486 2.835486,2.835486 c 0.132798,0.132797 0.34676,0.132797 0.479557,0 0.132798,-0.132798 0.132798,-0.34676 0,-0.479557 l -2.835486,-2.835486 2.835486,-2.835487 c 0.132798,-0.132797 0.132798,-0.346759 0,-0.479557 -0.132798,-0.132798 -0.346759,-0.132797 -0.479557,0 l -2.835486,2.835487 -2.835486,-2.835487 c -0.0664,-0.0664 -0.153124,-0.09974 -0.239779,-0.09974 z" /></g><path
       id="path7"
       style="fill:#800000;stroke-width:0.168733"
       d="m 61.244556,55.740352 c -0.0072,3.39e-4 -0.01454,0.0012 -0.0217,0.0026 l -1.223697,0.230477 c -0.0076,8.42e-4 -0.01493,0.0022 -0.02222,0.0041 -0.04667,0.0125 -0.08667,0.04739 -0.10387,0.09663 l -0.0987,0.28267 c -0.02765,0.07915 0.01387,0.165101 0.09302,0.192753 0.07914,0.02765 0.165101,-0.01387 0.192753,-0.09302 l 0.07338,-0.209806 1.03818,-0.204122 0.12454,0.181384 c 0.04745,0.06912 0.14172,0.08672 0.21084,0.03927 0.06912,-0.04745 0.0862,-0.141203 0.03876,-0.210323 l -0.169499,-0.247013 c -0.03084,-0.04493 -0.08125,-0.068 -0.131774,-0.06563 z m 2.019515,0.478007 -2.542481,0.420646 c -1.618791,0.267618 -2.564369,0.453453 -2.603459,0.512113 -0.07921,0.118881 -0.01727,0.457636 0.106454,0.58136 0.06776,0.06775 0.110794,0.401979 0.146244,1.131714 0.02767,0.569598 0.09184,1.672765 0.14211,2.45153 l 0.09147,1.415934 0.117822,0.179834 c 0.06481,0.09891 0.217472,0.223389 0.339514,0.276469 v -5.16e-4 c 0.27118,0.11794 2.804485,0.141261 3.207039,0.02945 0.548481,-0.152329 0.563123,-0.212832 0.718303,-2.898014 0.05777,-0.999543 0.120676,-1.997933 0.139526,-2.218986 l 0.03411,-0.402043 -2.18333,-0.0078 -2.182812,-0.0083 2.270662,-0.381372 c 1.248903,-0.209903 2.310449,-0.414939 2.359029,-0.455269 0.124194,-0.10307 0.109889,-0.293615 -0.03566,-0.473356 z m -3.9672,1.936833 c 0.09681,0 0.174666,0.07786 0.174666,0.174666 v 4.067452 c 0,0.09681 -0.07786,0.174666 -0.174666,0.174666 -0.09681,0 -0.174667,-0.07786 -0.174667,-0.174666 v -4.067452 c 0,-0.09681 0.07786,-0.174666 0.174667,-0.174666 z m 0.709517,0 c 0.09681,0 0.175183,0.07786 0.175183,0.174666 v 4.067452 c 0,0.09681 -0.07838,0.174666 -0.175183,0.174666 -0.09681,0 -0.174666,-0.07786 -0.174666,-0.174666 v -4.067452 c 0,-0.09681 0.07786,-0.174666 0.174666,-0.174666 z m 0.710034,0 c 0.09681,0 0.174667,0.07786 0.174667,0.174666 v 4.067452 c 0,0.09681 -0.07786,0.174666 -0.174667,0.174666 -0.09681,0 -0.174666,-0.07786 -0.174666,-0.174666 v -4.067452 c 0,-0.09681 0.07786,-0.174666 0.174666,-0.174666 z m 0.709518,0 c 0.09681,0 0.174666,0.07786 0.174666,0.174666 v 4.067452 c 0,0.09681 -0.07786,0.174666 -0.174666,0.174666 -0.09681,0 -0.174667,-0.07786 -0.174667,-0.174666 v -4.067452 c 0,-0.09681 0.07786,-0.174666 0.174667,-0.174666 z m 0.710034,0 c 0.09681,0 0.174666,0.07786 0.174666,0.174666 v 4.067452 c 0,0.09681 -0.07786,0.174666 -0.174666,0.174666 -0.09681,0 -0.174666,-0.07786 -0.174666,-0.174666 v -4.067452 c 0,-0.09681 0.07786,-0.174666 0.174666,-0.174666 z" /><rect
       style="fill:none;stroke:#000000;stroke-width:0.0260664;stroke-opacity:1"
       id="rect1"
       width="8.4666662"
       height="8.4666662"
       x="73.495628"
       y="55.281471"
       ry="0" /><text
       xml:space="preserve"
       style="font-style:italic;font-size:15.2329px;font-family:Monospace;-inkscape-font-specification:'Monospace Italic';text-align:start;writing-mode:lr-tb;direction:ltr;text-anchor:start;fill:#008000;fill-opacity:1;stroke:none;stroke-width:0.95955;stroke-opacity:1"
       x="47.987602"
       y="64.891998"
       id="text1"
       inkscape:export-filename="create.svg"
       inkscape:export-xdpi="96"
       inkscape:export-ydpi="96"><tspan
         sodipodi:role="line"
         id="tspan1"
         style="font-style:normal;font-variant:normal;font-weight:normal;font-stretch:normal;font-family:'Noto Sans Brahmi';-inkscape-font-specification:'Noto Sans Brahmi';fill:#008000;fill-opacity:1;stroke:none;stroke-width:0.95955"
         x="47.987602"
         y="64.891998">+</tspan></text><rect
       style="fill:none;stroke:#000000;stroke-width:0.0260664;stroke-opacity:1"
       id="rect2"
       width="8.4666662"
       height="8.4666662"
       x="56.562294"
       y="63.748138"
       ry="0" /><rect
       style="fill:none;stroke:#000000;stroke-width:0.0260664;stroke-opacity:1"
       id="rect3"
       width="8.4666662"
       height="8.4666662"
       x="65.028961"
       y="63.748138"
       ry="0" /><rect
       style="fill:none;stroke:#000000;stroke-width:0.0260664;stroke-opacity:1"
       id="rect4"
       width="8.4666662"
       height="8.4666662"
       x="48.095627"
       y="55.281471"
       ry="0" /><rect
       style="fill:none;stroke:#000000;stroke-width:0.0260664;stroke-opacity:1"
       id="rect5"
       width="8.4666662"
       height="8.4666662"
       x="56.562294"
       y="55.281471"
       ry="0" /><rect
       style="fill:none;stroke:#000000;stroke-width:0.0260664;stroke-opacity:1"
       id="rect7"
       width="8.4666662"
       height="8.4666662"
       x="48.095627"
       y="63.748138"
       ry="0" /><g
       id="g17"
       transform="translate(26.706383,-8.4666672)"><rect
         style="fill:none;stroke:#000000;stroke-width:0.0260664;stroke-opacity:1"
         id="rect6"
         width="8.4666662"
         height="8.4666662"
         x="38.322578"
         y="63.748138"
         ry="0" /><g
         id="g16"><path
           style="fill:none;fill-opacity:1;stroke:#000080;stroke-width:0.4;stroke-linecap:round;stroke-dasharray:none;stroke-opacity:1;marker-end:url(#ConcaveTriangle)"
           d="M 42.555911,65.587379 V 67.55181"
           id="path15"
           sodipodi:nodetypes="cc" /><rect
           style="fill:#000080;fill-opacity:1;stroke:none;stroke-width:0.4;stroke-linecap:round;stroke-dasharray:none;stroke-opacity:1"
           id="rect16"
           width="5.238483"
           height="0.47941473"
           x="39.936668"
           y="70.226082"
           ry="0.23970737" /></g></g><path
       style="fill:none;fill-opacity:1;stroke:#000080;stroke-width:0.4;stroke-linecap:round;stroke-dasharray:none;stroke-opacity:1;marker-end:url(#ConcaveTriangle)"
       d="m 75.099078,61.799215 c 0.06614,-1.989887 1.080382,-3.274218 3.042708,-3.852994"
       id="path17"
       sodipodi:nodetypes="cc" /><text
       xml:space="preserve"
       style="font-style:normal;font-variant:normal;font-weight:normal;font-stretch:normal;font-size:3.175px;font-family:'Noto Sans Brahmi';-inkscape-font-specification:'Noto Sans Brahmi';text-align:start;writing-mode:lr-tb;direction:ltr;text-anchor:start;fill:none;fill-opacity:1;stroke:#000080;stroke-width:0.4;stroke-linecap:round;stroke-dasharray:none;stroke-opacity:1"
       x="39.976223"
       y="69.899704"
       id="text17"><tspan
         sodipodi:role="line"
         id="tspan17"
         style="stroke-width:0.4"
         x="39.976223"
         y="69.899704" /></text><path
       id="rect17-2"
       style="fill:#800000;fill-opacity:1;stroke:none;stroke-width:0.406667;stroke-linecap:round;stroke-dasharray:none;stroke-opacity:1"
       d="m 66.187029,64.566759 c -0.08665,10e-7 -0.173379,0.03334 -0.239778,0.09974 -0.132798,0.132798 -0.132798,0.34676 0,0.479557 l 2.835486,2.835487 -2.835486,2.835486 c -0.132798,0.132797 -0.132798,0.346759 0,0.479557 0.132797,0.132797 0.346759,0.132797 0.479557,0 l 2.835486,-2.835486 2.835486,2.835486 c 0.132798,0.132797 0.34676,0.132797 0.479557,0 0.132798,-0.132798 0.132798,-0.34676 0,-0.479557 l -2.835486,-2.835486 2.835486,-2.835487 c 0.132798,-0.132797 0.132798,-0.346759 0,-0.479557 -0.132798,-0.132798 -0.346759,-0.132797 -0.479557,0 l -2.835486,2.835487 -2.835486,-2.835487 c -0.0664,-0.0664 -0.153124,-0.09974 -0.239779,-0.09974 z" /><text
       xml:space="preserve"
       style="font-style:normal;font-variant:normal;font-weight:normal;font-stretch:normal;font-size:3.175px;font-family:'Noto Sans Brahmi';-inkscape-font-specification:'Noto Sans Brahmi';text-align:start;writing-mode:lr-tb;direction:ltr;text-anchor:start;fill:#800000;fill-opacity:1;stroke:none;stroke-width:0.4;stroke-linecap:round;stroke-dasharray:none;stroke-opacity:1"
       x="56.714176"
       y="69.110176"
       id="text19"><tspan
         sodipodi:role="line"
         id="tspan19"
         style="fill:#800000;fill-opacity:1;stroke-width:0.4"
         x="56.714176"
         y="69.110176">OH:O</tspan></text></g></svg>
