<?xml version="1.0" encoding="UTF-8" standalone="no"?>
<!-- Created with Inkscape (http://www.inkscape.org/) -->

<svg
   width="1535.4159mm"
   height="863.67145mm"
   viewBox="0 0 1535.4159 863.67145"
   version="1.1"
   id="svg1"
   xml:space="preserve"
   inkscape:version="1.4.2 (1:1.4.2+202505120737+ebf0e940d0)"
   sodipodi:docname="background.svg"
   inkscape:export-filename="../png/background.png"
   inkscape:export-xdpi="96"
   inkscape:export-ydpi="96"
   xmlns:inkscape="http://www.inkscape.org/namespaces/inkscape"
   xmlns:sodipodi="http://sodipodi.sourceforge.net/DTD/sodipodi-0.dtd"
   xmlns="http://www.w3.org/2000/svg"
   xmlns:svg="http://www.w3.org/2000/svg"><sodipodi:namedview
     id="namedview1"
     pagecolor="#505050"
     bordercolor="#eeeeee"
     borderopacity="1"
     inkscape:showpageshadow="0"
     inkscape:pageopacity="0"
     inkscape:pagecheckerboard="0"
     inkscape:deskcolor="#505050"
     inkscape:document-units="mm"
     inkscape:zoom="0.022438359"
     inkscape:cx="-311.96577"
     inkscape:cy="-958.18059"
     inkscape:window-width="1920"
     inkscape:window-height="1007"
     inkscape:window-x="0"
     inkscape:window-y="0"
     inkscape:window-maximized="1"
     inkscape:current-layer="g32" /><defs
     id="defs1" /><g
     inkscape:label="Capa 1"
     inkscape:groupmode="layer"
     id="layer1"
     transform="translate(654.54418,328.98335)"><g
       id="g32"
       transform="translate(-15.476427,-8.1066998)"><text
         xml:space="preserve"
         style="font-style:normal;font-variant:normal;font-weight:normal;font-stretch:normal;font-size:147.314px;font-family:'Nimbus Sans';-inkscape-font-specification:'Nimbus Sans';text-align:start;writing-mode:lr-tb;direction:ltr;text-anchor:start;fill:#061b2e;fill-opacity:1;stroke:#7b9196;stroke-width:14.3945;stroke-linecap:round;stroke-dasharray:none;stroke-opacity:1"
         x="-410.30554"
         y="-127.69727"
         id="text37"><tspan
           sodipodi:role="line"
           id="tspan37"
           style="font-style:normal;font-variant:normal;font-weight:bold;font-stretch:normal;font-family:'Nimbus Sans';-inkscape-font-specification:'Nimbus Sans Bold';fill:#061b2e;fill-opacity:1;stroke:#7b9196;stroke-width:14.3945;stroke-dasharray:none;stroke-opacity:1"
           x="-410.30554"
           y="-127.69727">Graphene - GUI</tspan></text><text
         xml:space="preserve"
         style="font-style:normal;font-variant:normal;font-weight:normal;font-stretch:normal;font-size:147.314px;font-family:'Nimbus Sans';-inkscape-font-specification:'Nimbus Sans';text-align:start;writing-mode:lr-tb;direction:ltr;text-anchor:start;fill:#061b2e;fill-opacity:1;stroke:none;stroke-width:7.67708;stroke-linecap:round;stroke-dasharray:none;stroke-opacity:1"
         x="-410.30554"
         y="-127.69727"
         id="text38"><tspan
           sodipodi:role="line"
           id="tspan38"
           style="font-style:normal;font-variant:normal;font-weight:bold;font-stretch:normal;font-family:'Nimbus Sans';-inkscape-font-specification:'Nimbus Sans Bold';fill:#061b2e;fill-opacity:1;stroke:none;stroke-width:7.67708;stroke-dasharray:none;stroke-opacity:1"
           x="-410.30554"
           y="-127.69727">Graphene - GUI</tspan></text><path
         id="path38"
         style="baseline-shift:baseline;display:inline;overflow:visible;opacity:1;fill:#ffff00;stroke:#7b9196;stroke-width:14.3945;stroke-linecap:round;stroke-dasharray:none;stroke-opacity:1;enable-background:accumulate;stop-color:#000000;stop-opacity:1"
         d="m 279.82952,-87.578088 a 11.301763,11.301763 0 0 0 -2.93083,0.386809 11.301763,11.301763 0 0 0 -6.85831,5.266515 L 217.3355,9.3664097 A 47.148644,47.148644 0 0 0 204.23869,7.5117232 47.148644,47.148644 0 0 0 158.4667,43.350825 H 98.814254 A 47.148644,47.148644 0 0 0 53.042163,7.5117232 47.148644,47.148644 0 0 0 39.945354,9.3664097 L -12.769408,-81.924764 a 11.301763,11.301763 0 0 0 -15.427571,-4.140815 11.301763,11.301763 0 0 0 -4.140825,15.442493 L 20.366978,20.673021 A 47.148644,47.148644 0 0 0 5.896451,54.657435 47.148644,47.148644 0 0 0 20.366978,88.646744 L -9.4567481,140.30514 a 47.148644,47.148644 0 0 0 -13.0968099,-1.85469 47.148644,47.148644 0 0 0 -45.77209,35.8391 H -173.75504 a 11.301763,11.301763 0 0 0 -11.30168,11.30172 11.301763,11.301763 0 0 0 11.30168,11.30162 h 105.424498 a 47.148644,47.148644 0 0 0 45.776984,35.85398 47.148644,47.148644 0 0 0 13.1018,-1.85968 l 29.818736,51.65849 A 47.148644,47.148644 0 0 0 5.896451,316.53499 47.148644,47.148644 0 0 0 20.366978,350.5243 l -52.704782,91.3011 a 11.301763,11.301763 0 0 0 4.140825,15.42757 11.301763,11.301763 0 0 0 15.427571,-4.12595 l 52.714762,-91.29611 a 47.148644,47.148644 0 0 0 13.096809,1.85469 47.148644,47.148644 0 0 0 45.776985,-35.85388 h 59.642562 a 47.148644,47.148644 0 0 0 45.77698,35.85388 47.148644,47.148644 0 0 0 13.09681,-1.85469 l 52.70488,91.29611 a 11.301763,11.301763 0 0 0 15.44244,4.12595 11.301763,11.301763 0 0 0 4.14582,-15.42757 l -52.71976,-91.29611 a 47.148644,47.148644 0 0 0 13.1018,-22.69757 h 66.44138 a 40.581978,40.581978 0 0 0 38.97817,29.28316 40.581978,40.581978 0 0 0 40.58488,-40.57989 40.581978,40.581978 0 0 0 -40.58488,-40.57989 40.581978,40.581978 0 0 0 -9.70489,1.17527 l -33.21565,-57.53991 a 47.148644,47.148644 0 0 0 13.1018,-22.69757 h 105.40956 a 11.301763,11.301763 0 0 0 11.30172,-11.30162 11.301763,11.301763 0 0 0 -11.30172,-11.30172 H 325.6065 a 47.148644,47.148644 0 0 0 -45.77199,-35.8391 47.148644,47.148644 0 0 0 -13.09691,1.85469 L 236.91387,88.646744 A 47.148644,47.148644 0 0 0 251.3844,54.657435 47.148644,47.148644 0 0 0 236.91387,20.673021 l 52.71477,-91.296107 a 11.301763,11.301763 0 0 0 -4.14582,-15.442493 11.301763,11.301763 0 0 0 -5.6533,-1.512509 z M 98.819148,65.959056 h 59.642562 a 47.148644,47.148644 0 0 0 45.77698,35.848984 47.148644,47.148644 0 0 0 13.09681,-1.854685 l 29.82382,51.653505 a 47.148644,47.148644 0 0 0 -14.47552,33.9893 47.148644,47.148644 0 0 0 14.47053,33.98941 l -29.81883,51.6534 a 47.148644,47.148644 0 0 0 -13.09681,-1.85468 47.148644,47.148644 0 0 0 -45.77698,35.84409 H 98.819148 A 47.148644,47.148644 0 0 0 53.042163,269.38429 47.148644,47.148644 0 0 0 39.950248,271.23897 L 10.121627,219.58557 A 47.148644,47.148644 0 0 0 24.592155,185.59616 47.148644,47.148644 0 0 0 10.116637,151.60686 L 39.945354,99.953355 A 47.148644,47.148644 0 0 0 53.042163,101.80804 47.148644,47.148644 0 0 0 98.819148,65.959056 Z M 266.73261,230.89218 a 47.148644,47.148644 0 0 0 13.1019,1.85469 47.148644,47.148644 0 0 0 13.09681,-1.85469 l 33.22563,57.53981 a 40.581978,40.581978 0 0 0 -9.6999,16.79639 h -66.44637 a 47.148644,47.148644 0 0 0 -13.1018,-22.68769 z" /><path
         id="path34"
         style="baseline-shift:baseline;display:inline;overflow:visible;opacity:1;vector-effect:none;fill:#a00602;stroke-width:9.59635;stroke-linecap:round;enable-background:accumulate;stop-color:#000000;stop-opacity:1"
         d="m 279.83451,174.29454 a 11.301763,11.301763 0 0 0 -5.65341,1.51248 11.301763,11.301763 0 0 0 -4.14072,15.44744 l 56.11657,97.17753 a 40.581978,40.581978 0 0 0 -9.6999,16.79639 H 204.2337 A 11.301763,11.301763 0 0 0 192.93208,316.53 11.301763,11.301763 0 0 0 204.2337,327.83172 h 112.21836 a 40.581978,40.581978 0 0 0 38.97817,29.28316 40.581978,40.581978 0 0 0 40.58488,-40.57989 40.581978,40.581978 0 0 0 -40.58488,-40.57989 40.581978,40.581978 0 0 0 -9.70489,1.17527 l -56.0967,-97.17753 a 11.301763,11.301763 0 0 0 -9.79413,-5.6583 z" /><path
         id="path10"
         style="baseline-shift:baseline;display:inline;overflow:visible;opacity:1;vector-effect:none;fill:#061b2e;stroke-width:9.59635;stroke-linecap:round;enable-background:accumulate;stop-color:#000000;stop-opacity:1"
         d="m 279.82952,-87.578088 a 11.301763,11.301763 0 0 0 -2.93083,0.386809 11.301763,11.301763 0 0 0 -6.85831,5.266515 L 217.3355,9.3664097 A 47.148644,47.148644 0 0 0 204.23869,7.5117232 47.148644,47.148644 0 0 0 158.4667,43.350825 H 98.814254 A 47.148644,47.148644 0 0 0 53.042163,7.5117232 47.148644,47.148644 0 0 0 39.945354,9.3664097 L -12.769408,-81.924764 a 11.301763,11.301763 0 0 0 -15.427571,-4.140815 11.301763,11.301763 0 0 0 -4.140825,15.442493 L 20.366978,20.673021 A 47.148644,47.148644 0 0 0 5.896451,54.657435 47.148644,47.148644 0 0 0 20.366978,88.646744 L -9.4567481,140.30514 a 47.148644,47.148644 0 0 0 -13.0968099,-1.85469 47.148644,47.148644 0 0 0 -45.77209,35.8391 H -173.75504 a 11.301763,11.301763 0 0 0 -11.30168,11.30172 11.301763,11.301763 0 0 0 11.30168,11.30162 h 105.424498 a 47.148644,47.148644 0 0 0 45.776984,35.85398 47.148644,47.148644 0 0 0 13.1018,-1.85968 l 29.818736,51.65849 A 47.148644,47.148644 0 0 0 5.896451,316.53499 47.148644,47.148644 0 0 0 20.366978,350.5243 l -52.704782,91.3011 a 11.301763,11.301763 0 0 0 4.140825,15.42757 11.301763,11.301763 0 0 0 15.427571,-4.12595 l 52.714762,-91.29611 a 47.148644,47.148644 0 0 0 13.096809,1.85469 47.148644,47.148644 0 0 0 45.776985,-35.85388 h 59.642562 a 47.148644,47.148644 0 0 0 45.77698,35.85388 47.148644,47.148644 0 0 0 13.09681,-1.85469 l 52.70488,91.29611 a 11.301763,11.301763 0 0 0 15.44244,4.12595 11.301763,11.301763 0 0 0 4.14582,-15.42757 l -52.71976,-91.29611 a 47.148644,47.148644 0 0 0 14.47552,-33.9943 47.148644,47.148644 0 0 0 -14.47552,-33.9943 l 29.82373,-51.64851 a 47.148644,47.148644 0 0 0 13.1019,1.85469 47.148644,47.148644 0 0 0 45.77698,-35.85398 h 105.40956 a 11.301763,11.301763 0 0 0 11.30172,-11.30162 11.301763,11.301763 0 0 0 -11.30172,-11.30172 H 325.6065 a 47.148644,47.148644 0 0 0 -45.77199,-35.8391 47.148644,47.148644 0 0 0 -13.09691,1.85469 L 236.91387,88.646744 A 47.148644,47.148644 0 0 0 251.3844,54.657435 47.148644,47.148644 0 0 0 236.91387,20.673021 l 52.71477,-91.296107 a 11.301763,11.301763 0 0 0 -4.14582,-15.442493 11.301763,11.301763 0 0 0 -5.6533,-1.512509 z M 98.819148,65.959056 h 59.642562 a 47.148644,47.148644 0 0 0 45.77698,35.848984 47.148644,47.148644 0 0 0 13.09681,-1.854685 l 29.82382,51.653505 a 47.148644,47.148644 0 0 0 -14.47552,33.9893 47.148644,47.148644 0 0 0 14.47053,33.98941 l -29.81883,51.6534 a 47.148644,47.148644 0 0 0 -13.09681,-1.85468 47.148644,47.148644 0 0 0 -45.77698,35.84409 H 98.819148 A 47.148644,47.148644 0 0 0 53.042163,269.38429 47.148644,47.148644 0 0 0 39.950248,271.23897 L 10.121627,219.58557 A 47.148644,47.148644 0 0 0 24.592155,185.59616 47.148644,47.148644 0 0 0 10.116637,151.60686 L 39.945354,99.953355 a 47.148644,47.148644 0 0 0 13.096809,1.854685 47.148644,47.148644 0 0 0 45.776985,-35.848984 z"
         inkscape:export-filename="icon.svg"
         inkscape:export-xdpi="1000"
         inkscape:export-ydpi="1000" /></g></g></svg>
