<?xml version="1.0" encoding="UTF-8" standalone="no"?>
<!-- Created with Inkscape (http://www.inkscape.org/) -->

<svg
   width="8.4666662mm"
   height="8.4666662mm"
   viewBox="0 0 8.4666662 8.4666662"
   version="1.1"
   id="svg1"
   xml:space="preserve"
   sodipodi:docname="cnt.svg"
   inkscape:version="1.4.2 (1:1.4.2+202505120737+ebf0e940d0)"
   inkscape:export-filename="../png/cnt.png"
   inkscape:export-xdpi="96"
   inkscape:export-ydpi="96"
   xmlns:inkscape="http://www.inkscape.org/namespaces/inkscape"
   xmlns:sodipodi="http://sodipodi.sourceforge.net/DTD/sodipodi-0.dtd"
   xmlns="http://www.w3.org/2000/svg"
   xmlns:svg="http://www.w3.org/2000/svg"><sodipodi:namedview
     id="namedview1"
     pagecolor="#ffffff"
     bordercolor="#000000"
     borderopacity="0.25"
     inkscape:showpageshadow="2"
     inkscape:pageopacity="0.0"
     inkscape:pagecheckerboard="0"
     inkscape:deskcolor="#d1d1d1"
     inkscape:document-units="mm"
     inkscape:zoom="32"
     inkscape:cx="14.546875"
     inkscape:cy="11.078125"
     inkscape:window-width="1920"
     inkscape:window-height="1007"
     inkscape:window-x="0"
     inkscape:window-y="0"
     inkscape:window-maximized="1"
     inkscape:current-layer="g97" /><defs
     id="defs1" /><g
     id="g97"
     transform="translate(0.1366078,0.09699266)"><g
       id="g92"
       transform="translate(0.77471192,1.1264168)"><path
         id="ellipse65"
         style="baseline-shift:baseline;display:inline;overflow:visible;vector-effect:none;stroke-dasharray:0.1, 0.2;enable-background:accumulate;stop-color:#000000"
         d="m 6.2792033,2.4670329 -0.00362,0.00155 -0.039274,0.011885 -0.039274,0.01757 -0.01757,0.011886 0.025838,0.042891 0.015503,-0.00982 0.033073,-0.015503 0.03514,-0.00982 z m 0.2108398,0.01912 -0.021187,0.044958 0.027388,0.011885 0.033073,0.019637 0.021704,0.015503 0.028939,-0.039274 -0.023254,-0.01757 -0.037207,-0.023254 z m -0.4666382,0.1581298 -0.00568,0.00827 -0.03359,0.042891 -0.021187,0.031006 0.040824,0.029456 0.021704,-0.031523 0.031006,-0.040824 0.00413,-0.00568 z m 0.7012492,0.041341 -0.039274,0.031006 0.0062,0.00775 0.028939,0.044959 0.019637,0.027388 0.041341,-0.025321 -0.01757,-0.029456 -0.031523,-0.046509 z m -0.8635131,0.2206584 -0.038757,0.091984 0.044958,0.01912 0.040824,-0.091467 z m 1.0138916,0.047026 -0.047026,0.01912 0.031523,0.070797 0.00775,0.01912 0.047026,-0.015503 -0.00827,-0.021704 z m 0.1012858,0.2847371 -0.046509,0.013953 0.019637,0.066146 0.00568,0.029456 0.048576,-0.011886 -0.00568,-0.028939 z m 0.070797,0.2930054 -0.049093,0.00982 0.019637,0.095601 v 0.00207 l 0.048576,-0.00775 v -0.00362 z m 0.046509,0.2992066 -0.048576,0.00568 0.00982,0.097668 0.048576,-0.00413 z m 0.025321,0.3007568 -0.050643,0.00155 0.00207,0.039274 0.00207,0.060461 0.048576,-0.00207 V 4.169768 Z m -0.044958,0.2320272 -0.00155,0.099736 0.050643,0.00207 0.00207,-0.099736 z m -0.0093,0.2992065 -0.00413,0.078031 -0.00207,0.021187 0.049093,0.00413 0.00155,-0.021704 0.0062,-0.078031 z m -0.029456,0.2966227 -0.013953,0.097668 0.049093,0.00775 0.015503,-0.099219 z m -0.049093,0.2950725 v 0.00207 l -0.023254,0.093534 0.049093,0.011886 0.023254,-0.095601 v -0.00413 z m -0.075964,0.2873209 -0.00413,0.011369 -0.028939,0.080099 0.046509,0.01757 0.031523,-0.082166 0.00207,-0.013436 z m -1.0996745,0.013436 -0.047026,0.01757 0.03359,0.093534 0.046509,-0.01757 z m 0.9901205,0.2614828 -0.021187,0.043408 -0.023771,0.042891 0.043408,0.025321 0.025321,-0.044958 0.021187,-0.044958 z m -0.8784994,0.013953 -0.044958,0.021187 0.015503,0.031523 0.029456,0.05271 0.00362,0.00568 0.042891,-0.025321 -0.00362,-0.00568 -0.029456,-0.050643 z m 0.7224366,0.2325439 -0.015503,0.01757 -0.03359,0.031006 -0.01912,0.01757 0.031006,0.039274 0.023254,-0.019637 0.03359,-0.03514 0.01757,-0.01757 z m -0.5627564,0.011369 -0.03669,0.03359 0.00568,0.00568 0.03514,0.03514 0.03514,0.029456 0.031523,-0.037207 -0.03359,-0.029456 -0.031006,-0.031006 z m 0.3281454,0.1405598 -0.01757,0.00207 -0.03514,0.00413 -0.03514,-0.00413 h -0.00155 l -0.00982,0.049093 0.00568,0.00155 0.040824,0.00207 0.041341,-0.00207 0.021187,-0.00362 z" /><path
         id="path91"
         style="baseline-shift:baseline;display:inline;overflow:visible;vector-effect:none;stroke-dasharray:0.1, 0.2;enable-background:accumulate;stop-color:#000000"
         d="m 5.7200643,3.2380452 -0.021704,0.06873 -0.00568,0.028939 0.048576,0.011886 0.00568,-0.029456 0.019637,-0.066146 z m -0.070797,0.2930054 -0.01912,0.096118 v 0.00362 l 0.048576,0.00775 v -0.00207 l 0.019637,-0.095601 z m -0.046509,0.2992066 -0.00982,0.099219 0.048576,0.00413 0.00982,-0.097668 z m -0.025322,0.3007568 -0.00207,0.038757 v 0.060461 l 0.048576,0.00207 0.00207,-0.060461 0.00207,-0.039274 z m 0.044958,0.2320272 -0.05116,0.00207 0.00207,0.099736 0.050643,-0.00207 z m 0.0093,0.2992065 -0.050643,0.00362 0.0062,0.078031 0.00155,0.021704 0.049093,-0.00413 -0.00207,-0.021187 z m 0.029456,0.2966227 -0.050643,0.0062 0.015503,0.099219 0.049093,-0.00775 z m 0.049093,0.2950725 -0.049093,0.00775 v 0.00413 l 0.023254,0.095601 0.049093,-0.011886 -0.023254,-0.093534 z" /><path
         style="fill:none;stroke:#000000;stroke-width:0.05;stroke-dasharray:0.1, 0.2;stroke-dashoffset:0"
         d="M 1.6820026,2.4825857 H 6.3557373"
         id="path70" /><path
         style="fill:none;stroke:#000000;stroke-width:0.05;stroke-dasharray:0.1, 0.2;stroke-dashoffset:0"
         d="M 1.6820026,6.243981 H 6.3557373"
         id="path71" /><path
         style="fill:#0000ff;stroke:#000000;stroke-width:0.0499999;stroke-dasharray:0.1, 0.2;stroke-dashoffset:0;stroke-opacity:1"
         d="M 2.8543581,5.0449818 2.0269407,5.5432062"
         id="path83" /><path
         style="fill:#0000ff;stroke:#000000;stroke-width:0.0499999;stroke-dasharray:0.1, 0.2;stroke-dashoffset:0;stroke-opacity:1"
         d="M 4.7296728,5.0449818 3.9022554,5.5432062"
         id="path84" /><path
         style="fill:#0000ff;stroke:#000000;stroke-width:0.0499999;stroke-dasharray:0.1, 0.2;stroke-dashoffset:0;stroke-opacity:1"
         d="m 4.7397873,5.0678442 1.0744963,0.475362"
         id="path85" /><path
         style="fill:#0000ff;stroke:#000000;stroke-width:0.0499999;stroke-dasharray:0.1, 0.2;stroke-dashoffset:0;stroke-opacity:1"
         d="M 2.8773687,5.0678442 3.951865,5.5432062"
         id="path86" /><path
         style="fill:#0000ff;stroke:#000000;stroke-width:0.0499999;stroke-dasharray:0.1, 0.2;stroke-dashoffset:0;stroke-opacity:1"
         d="M 0.96120655,5.0678442 2.0357029,5.5432062"
         id="path87" /><path
         style="fill:#0000ff;stroke:#000000;stroke-width:0.0499999;stroke-dasharray:0.1, 0.2;stroke-dashoffset:0;stroke-opacity:1"
         d="M 2.8543581,3.6567488 2.0269407,3.1585244"
         id="path82" /><path
         style="fill:#0000ff;stroke:#000000;stroke-width:0.0499999;stroke-dasharray:0.1, 0.2;stroke-dashoffset:0;stroke-opacity:1"
         d="M 4.7296728,3.6567488 3.9022554,3.1585244"
         id="path81" /><path
         style="fill:#0000ff;stroke:#000000;stroke-width:0.0499999;stroke-dasharray:0.1, 0.2;stroke-dashoffset:0;stroke-opacity:1"
         d="M 4.7397873,3.6338864 5.8142836,3.1585244"
         id="path80" /><path
         style="fill:#0000ff;stroke:#000000;stroke-width:0.0499999;stroke-dasharray:0.1, 0.2;stroke-dashoffset:0;stroke-opacity:1"
         d="M 2.8773687,3.6338864 3.951865,3.1585244"
         id="path79" /><path
         style="fill:#0000ff;stroke:#000000;stroke-width:0.0499999;stroke-dasharray:0.1, 0.2;stroke-dashoffset:0;stroke-opacity:1"
         d="M 0.96120655,3.6338864 2.0357029,3.1585244"
         id="path78" /><path
         id="ellipse71"
         style="baseline-shift:baseline;display:inline;overflow:visible;vector-effect:none;stroke-dasharray:0.1, 0.2;enable-background:accumulate;stop-color:#000000"
         d="m 1.5926722,2.4670329 -0.00362,0.00155 -0.039274,0.011885 -0.039274,0.01757 -0.01757,0.011886 0.025322,0.042891 0.01602,-0.00982 0.033073,-0.015503 0.03514,-0.00982 z m -0.2557983,0.1772501 -0.00568,0.00827 -0.03359,0.042891 -0.021187,0.031006 0.040824,0.029456 0.021704,-0.031523 0.031006,-0.040824 0.0062,-0.00568 z m -0.162264,0.2619996 -0.038757,0.091984 0.046509,0.01912 0.039274,-0.091467 z m -0.107487,0.2831868 -0.028939,0.095601 0.048576,0.013953 0.027389,-0.096118 z m -0.075964,0.2909383 -0.0175699,0.099735 0.0490926,0.00775 0.01757,-0.097669 z m -0.0485758,0.2971395 -0.004134,0.023254 -0.007752,0.078031 0.0506429,0.00413 0.005684,-0.074414 0.004134,-0.023254 z M 0.9151942,4.078304 0.9089932,4.169771 v 0.00982 l 0.0490926,0.00207 v -0.00982 l 0.005684,-0.089917 z m 0.0408244,0.3007569 -0.0506429,0.00155 0.002067,0.099736 h 0.0506429 z m 0.009819,0.2986898 -0.0490926,0.00413 0.004134,0.062012 0.004134,0.037207 0.0485759,-0.00362 -0.004134,-0.037207 z m 0.0294556,0.2966227 -0.0490926,0.00827 0.0139526,0.097669 0.0506429,-0.0062 z m 0.05271,0.2930053 -0.049093,0.011886 0.023771,0.097668 0.048576,-0.011886 z m 0.075964,0.287321 -0.047026,0.01757 0.03359,0.093534 0.046509,-0.01757 z m 0.1111043,0.2754354 -0.044442,0.021187 0.015503,0.031523 0.028939,0.05271 0.00413,0.00568 0.042891,-0.025321 -0.00362,-0.00568 -0.027389,-0.050643 z m 0.162264,0.2439128 -0.038757,0.03359 0.00568,0.00568 0.03514,0.03514 0.03514,0.029456 0.031006,-0.037207 -0.031006,-0.029456 -0.033073,-0.031006 z m 0.2382284,0.1426269 -0.00982,0.049093 0.00413,0.00155 0.040824,0.00207 h 0.00103 v -0.048576 h -0.00103 l -0.033073,-0.00413 z" /><path
         id="path74"
         style="baseline-shift:baseline;display:inline;overflow:visible;vector-effect:none;stroke-dasharray:0.1, 0.2;enable-background:accumulate;stop-color:#000000"
         d="m 2.5249105,2.4670329 -0.00362,0.00155 -0.039274,0.011885 -0.039274,0.01757 -0.01757,0.011886 0.025321,0.042891 0.01602,-0.00982 0.033073,-0.015503 0.03514,-0.00982 z m -0.2557984,0.1772501 -0.00568,0.00827 -0.03359,0.042891 -0.021187,0.031006 0.040824,0.029456 0.021704,-0.031523 0.031006,-0.040824 0.0062,-0.00568 z m -0.162264,0.2619996 -0.038757,0.091984 0.046509,0.01912 0.039274,-0.091467 z m -0.050643,2.6484171 -0.047026,0.01757 0.03359,0.093534 0.046509,-0.01757 z m 0.1111044,0.2754354 -0.044442,0.021187 0.015503,0.031523 0.028939,0.05271 0.00413,0.00568 0.042891,-0.025321 -0.00362,-0.00568 -0.027388,-0.050643 z m 0.162264,0.2439128 -0.038757,0.03359 0.00568,0.00568 0.03514,0.03514 0.03514,0.029456 0.031006,-0.037207 -0.031006,-0.029456 -0.033073,-0.031006 z m 0.2382283,0.1426269 -0.00982,0.049093 0.00413,0.00155 0.040824,0.00207 h 0.00103 v -0.048576 h -0.00103 l -0.033073,-0.00413 z" /><path
         id="path75"
         style="baseline-shift:baseline;display:inline;overflow:visible;vector-effect:none;stroke-dasharray:0.1, 0.2;enable-background:accumulate;stop-color:#000000"
         d="m 2.8070638,3.7775472 -0.00413,0.023254 -0.00775,0.078031 0.050643,0.00413 0.00568,-0.074414 0.00413,-0.023254 z m -0.027388,0.3007568 -0.0062,0.091467 v 0.00982 l 0.049093,0.00207 v -0.00982 l 0.00568,-0.089917 z m 0.040824,0.3007569 -0.050643,0.00155 0.00207,0.099736 h 0.050643 z m 0.00982,0.2986898 -0.049093,0.00413 0.00413,0.062012 0.00413,0.037207 0.048576,-0.00362 -0.00413,-0.037207 z m 0.029456,0.2966227 -0.049093,0.00827 0.010335,0.073897 h 0.051677 z" /><path
         id="path76"
         style="baseline-shift:baseline;display:inline;overflow:visible;vector-effect:none;stroke-dasharray:0.1, 0.2;enable-background:accumulate;stop-color:#000000"
         d="m 4.3893962,2.4670329 -0.00362,0.00155 -0.039274,0.011885 -0.039274,0.01757 -0.01757,0.011886 0.025321,0.042891 0.01602,-0.00982 0.033073,-0.015503 0.03514,-0.00982 z m -0.2557984,0.1772501 -0.00568,0.00827 -0.03359,0.042891 -0.021187,0.031006 0.040824,0.029456 0.021704,-0.031523 0.031006,-0.040824 0.0062,-0.00568 z m -0.162264,0.2619996 -0.038757,0.091984 0.046509,0.01912 0.039274,-0.091467 z m -0.050643,2.6484171 -0.047025,0.01757 0.03359,0.093534 0.046509,-0.01757 z m 0.1111043,0.2754354 -0.044442,0.021187 0.015503,0.031523 0.028939,0.05271 0.00413,0.00568 0.042891,-0.025321 -0.00362,-0.00568 -0.027389,-0.050643 z m 0.162264,0.2439128 -0.038757,0.03359 0.00568,0.00568 0.03514,0.03514 0.03514,0.029456 0.031006,-0.037207 -0.031006,-0.029456 -0.033073,-0.031006 z m 0.2382284,0.1426269 -0.00982,0.049093 0.00413,0.00155 0.040824,0.00207 h 0.00103 v -0.048576 h -0.00103 l -0.033073,-0.00413 z" /><path
         id="path77"
         style="baseline-shift:baseline;display:inline;overflow:visible;vector-effect:none;stroke-dasharray:0.1, 0.2;enable-background:accumulate;stop-color:#000000"
         d="m 4.6710327,3.7775472 -0.00413,0.023254 -0.00775,0.078031 0.050643,0.00413 0.00568,-0.074414 0.00413,-0.023254 z m -0.027388,0.3007568 -0.0062,0.091467 v 0.00982 l 0.049093,0.00207 v -0.00982 l 0.00568,-0.089917 z m 0.040824,0.3007569 -0.050643,0.00155 0.00207,0.099736 h 0.050643 z m 0.00982,0.2986898 -0.049093,0.00413 0.00413,0.062012 0.00413,0.037207 0.048576,-0.00362 -0.00413,-0.037207 z m 0.029456,0.2966227 -0.049093,0.00827 0.010335,0.073897 h 0.051676 z" /><g
         id="g64"><g
           id="g63"><circle
             style="fill:#000080;stroke:none;stroke-width:0.196609;stroke-dasharray:none"
             id="circle10"
             cx="6.3583865"
             cy="6.2693849"
             r="0.18237305" /><circle
             style="fill:#000080;stroke:none;stroke-width:0.196609;stroke-dasharray:none"
             id="path10"
             cx="6.3583865"
             cy="2.4579895"
             r="0.18237305" /><circle
             style="fill:#000080;stroke:none;stroke-width:0.176802;stroke-dasharray:none"
             id="circle27"
             cx="-6.9362092"
             cy="5.5200748"
             r="0.164"
             transform="scale(-1,1)" /><circle
             style="fill:#000080;stroke:none;stroke-width:0.176802;stroke-dasharray:none"
             id="circle28"
             cx="-6.9362092"
             cy="3.1585245"
             r="0.164"
             transform="scale(-1,1)" /><circle
             style="fill:#000080;stroke:none;stroke-width:0.21669;stroke-dasharray:none"
             id="circle25"
             cx="5.7805638"
             cy="3.1585245"
             r="0.20100001" /><circle
             style="fill:#000080;stroke:none;stroke-width:0.21669;stroke-dasharray:none"
             id="circle26"
             cx="5.7805638"
             cy="5.5200748"
             r="0.20100001" /></g><g
           id="g35"
           transform="translate(3.7470414)"><circle
             style="fill:#000080;stroke:none;stroke-width:0.196609;stroke-dasharray:none"
             id="circle30"
             cx="0.73303682"
             cy="6.2693849"
             r="0.18237305" /><circle
             style="fill:#000080;stroke:none;stroke-width:0.196609;stroke-dasharray:none"
             id="circle31"
             cx="0.73303682"
             cy="2.4579895"
             r="0.18237305" /><circle
             style="fill:#000080;stroke:none;stroke-width:0.21669;stroke-dasharray:none"
             id="circle33"
             cx="0.15521413"
             cy="3.1585245"
             r="0.20100001" /><circle
             style="fill:#000080;stroke:none;stroke-width:0.21669;stroke-dasharray:none"
             id="circle34"
             cx="0.15521413"
             cy="5.5200748"
             r="0.20100001" /></g><g
           id="g41"
           transform="translate(1.8804888)"><circle
             style="fill:#000080;stroke:none;stroke-width:0.196609;stroke-dasharray:none"
             id="circle37"
             cx="0.73303682"
             cy="6.2693849"
             r="0.18237305" /><circle
             style="fill:#000080;stroke:none;stroke-width:0.196609;stroke-dasharray:none"
             id="circle38"
             cx="0.73303682"
             cy="2.4579895"
             r="0.18237305" /><circle
             style="fill:#000080;stroke:none;stroke-width:0.21669;stroke-dasharray:none"
             id="circle40"
             cx="0.15521413"
             cy="3.1585245"
             r="0.20100001" /><circle
             style="fill:#000080;stroke:none;stroke-width:0.21669;stroke-dasharray:none"
             id="circle41"
             cx="0.15521413"
             cy="5.5200748"
             r="0.20100001" /></g><g
           id="g55"
           style="fill:#000080"><circle
             style="fill:#000080;stroke:none;stroke-width:0.226393;stroke-dasharray:none"
             id="circle48"
             cx="4.7294269"
             cy="3.6338866"
             r="0.20999999" /><circle
             style="fill:#000080;stroke:none;stroke-width:0.226393;stroke-dasharray:none"
             id="circle54"
             cx="4.7294269"
             cy="-5.044713"
             r="0.20999999"
             transform="scale(1,-1)" /></g><g
           id="g58"
           transform="translate(-1.8604565)"
           style="fill:#000080"><circle
             style="fill:#000080;stroke:none;stroke-width:0.226393;stroke-dasharray:none"
             id="circle55"
             cx="4.7294269"
             cy="3.6338866"
             r="0.20999999" /><circle
             style="fill:#000080;stroke:none;stroke-width:0.226393;stroke-dasharray:none"
             id="circle58"
             cx="4.7294269"
             cy="-5.044713"
             r="0.20999999"
             transform="scale(1,-1)" /></g><g
           id="g62"
           transform="translate(-3.7682203)"
           style="fill:#000080"><circle
             style="fill:#000080;stroke:none;stroke-width:0.226393;stroke-dasharray:none"
             id="circle59"
             cx="4.7294269"
             cy="3.6338866"
             r="0.20999999" /><circle
             style="fill:#000080;stroke:none;stroke-width:0.226393;stroke-dasharray:none"
             id="circle62"
             cx="4.7294269"
             cy="-5.044713"
             r="0.20999999"
             transform="scale(1,-1)" /></g></g></g><path
       id="rect95"
       style="baseline-shift:baseline;display:inline;overflow:visible;vector-effect:none;fill:#000080;enable-background:accumulate;stop-color:#000000;stop-opacity:1;opacity:1"
       d="M 1.039031 0.69520705 L 0.29282335 1.6837772 L 4.8791067 1.6837772 L 4.6140066 1.333411 C 4.5906236 1.3364033 4.5663849 1.3403347 4.5416596 1.3458133 L 4.7462983 1.6171146 L 0.42563178 1.6171146 L 1.072104 0.75980259 L 4.0998261 0.75980259 L 4.464145 1.243494 L 4.4646617 1.243494 C 4.4876172 1.2369013 4.5105625 1.2312582 4.5328746 1.2264408 L 4.130832 0.69520705 L 1.039031 0.69520705 z M 4.5917858 1.3044722 C 4.5877877 1.3053413 4.5837734 1.3059272 4.5799002 1.3065392 C 4.5838969 1.3059777 4.5882498 1.3056831 4.5923025 1.3049889 L 4.5917858 1.3044722 z " /><path
       id="path97"
       style="baseline-shift:baseline;display:inline;overflow:visible;vector-effect:none;enable-background:accumulate;stop-color:#000000;fill:#ff0000"
       d="M 4.709608 1.2424605 C 4.5908383 1.2414194 4.4591172 1.2714913 4.3142833 1.3339278 L 4.3339204 1.3788862 C 4.5205497 1.2984322 4.6800811 1.2765573 4.8145112 1.3029219 C 4.9489414 1.3292869 5.0602586 1.4033475 5.150408 1.5215132 C 5.3279353 1.7542117 5.4210893 2.1593634 5.4294607 2.6769982 L 5.3276582 2.5772627 L 5.457366 3.0134118 L 5.5777721 2.5746789 L 5.4780366 2.6764815 C 5.4696615 2.1533591 5.3788604 1.740028 5.1896821 1.4920576 C 5.0936119 1.3661311 4.9712365 1.2826411 4.8243297 1.2538293 C 4.787603 1.2466264 4.7491979 1.2428075 4.709608 1.2424605 z " /></g></svg>
