<?xml version="1.0" encoding="UTF-8" standalone="no"?>
<!-- Created with Inkscape (http://www.inkscape.org/) -->

<svg
   width="8.4666662mm"
   height="8.4666662mm"
   viewBox="0 0 8.4666662 8.4666662"
   version="1.1"
   id="svg1"
   xml:space="preserve"
   sodipodi:docname="cnt.svg"
   inkscape:version="1.4.2 (1:1.4.2+202505120737+ebf0e940d0)"
   inkscape:export-filename="../png/cnt.png"
   inkscape:export-xdpi="96"
   inkscape:export-ydpi="96"
   xmlns:inkscape="http://www.inkscape.org/namespaces/inkscape"
   xmlns:sodipodi="http://sodipodi.sourceforge.net/DTD/sodipodi-0.dtd"
   xmlns="http://www.w3.org/2000/svg"
   xmlns:svg="http://www.w3.org/2000/svg"><sodipodi:namedview
     id="namedview1"
     pagecolor="#ffffff"
     bordercolor="#000000"
     borderopacity="0.25"
     inkscape:showpageshadow="2"
     inkscape:pageopacity="0.0"
     inkscape:pagecheckerboard="0"
     inkscape:deskcolor="#d1d1d1"
     inkscape:document-units="mm"
     inkscape:zoom="16"
     inkscape:cx="21.90625"
     inkscape:cy="17.90625"
     inkscape:window-width="1920"
     inkscape:window-height="1007"
     inkscape:window-x="0"
     inkscape:window-y="0"
     inkscape:window-maximized="1"
     inkscape:current-layer="g97" /><defs
     id="defs1" /><g
     id="g97"
     transform="translate(0.1366078,0.09699266)"><path
       id="path1"
       style="fill:#000000;stroke-width:0.112308"
       d="m 5.8508423,0.34480261 c -0.042658,0.002749 -0.083762,0.009182 -0.1229224,0.0194422 -0.118317,0.0309875 -0.3695,0.27293236 -2.7248735,2.62452859 -1.4270201,1.4247319 -2.61683478,2.630518 -2.64402855,2.6795474 -0.0767312,0.1383435 -0.0608021,0.458461 0.0354015,0.7105993 0.26712402,0.7000962 1.08810175,1.4280052 1.74144445,1.5440624 0.1148184,0.020396 0.3573687,-0.00994 0.442935,-0.055425 C 2.6211864,7.8450309 3.8217538,6.6590222 5.2467391,5.2320017 7.0888476,3.3872634 7.8445625,2.6116569 7.8616343,2.5482757 7.905933,2.3838387 7.8796244,2.1109579 7.7988418,1.8971057 7.4902015,1.0800724 6.490766,0.3034852 5.8508438,0.34480232 Z m 0.068895,0.19511873 c 0.017832,6.1353e-4 0.031878,0.005008 0.040629,0.0137588 0.010074,0.0100313 0.00216,0.0904497 -0.017645,0.17869452 C 5.9077917,0.888459 5.9032582,0.89370375 5.7762138,0.92569439 5.6031869,0.96926343 5.603161,0.96922601 5.527643,0.88884068 L 5.4621736,0.81913856 5.5940911,0.69755167 C 5.6939287,0.60551885 5.842495,0.53726615 5.9197342,0.53992436 Z m 0.2957536,0.0768981 c 0.05161,0.002231 0.2277384,0.0837329 0.3688812,0.1728328 0.1209219,0.0763397 0.1216703,0.0779329 0.092109,0.19442244 C 6.6495822,1.0900578 6.6340676,1.1047074 6.5175769,1.1340411 6.3420127,1.1782492 6.3518568,1.1810859 6.2240871,1.0502363 L 6.1105051,0.93387224 6.146773,0.78268696 C 6.16672,0.69953406 6.19231,0.62579983 6.20365,0.61879177 c 0.00245,-0.00154 0.00648,-0.002202 0.011801,-0.001972 z M 5.313894,0.97658794 5.386732,1.0450134 C 5.4268,1.0826604 5.454547,1.1287594 5.448373,1.1474474 5.442183,1.1661374 5.423014,1.2365974 5.405772,1.30403 5.379996,1.4048722 5.359286,1.4296553 5.2889374,1.4437235 5.2419044,1.4531335 5.1714119,1.4688445 5.1322972,1.4786615 5.0808022,1.4915855 5.0430952,1.4773015 4.995616,1.4267765 L 4.9300896,1.3569597 5.1219586,1.166774 Z m 1.571571,0.0588492 c 0.045983,-0.00135 0.3330506,0.2830757 0.31363,0.3145 -0.034023,0.055057 -0.1542755,0.018839 -0.2436372,-0.073358 -0.089403,-0.092246 -0.1207636,-0.1931565 -0.074407,-0.2395168 0.00104,-0.00104 0.00259,-0.00157 0.00446,-0.00163 z m -0.9127983,0.061461 0.1073071,0.10731 0.1073647,0.1073099 -0.03621,0.1618059 C 6.1193225,1.6154612 6.1046565,1.6371456 6.0305807,1.6519605 5.9842097,1.6612305 5.914624,1.6767765 5.8759122,1.6864925 5.8208192,1.7003235 5.7811262,1.6792525 5.693388,1.5893985 L 5.5813167,1.4745442 5.616606,1.3216179 5.6518953,1.1686334 5.8123091,1.132767 Z m 0.7160547,0.2107308 0.1193244,0.1193806 0.1193821,0.119323 -0.035692,0.1488638 C 6.8576408,1.8372978 6.850085,1.8455439 6.7262155,1.8767348 6.5499087,1.9211299 6.5599083,1.9240055 6.4320867,1.793104 L 6.3185047,1.6767415 6.354197,1.5280518 C 6.3892848,1.3817763 6.3922783,1.3787582 6.5392758,1.3434955 Z m -1.9086473,0.2016189 0.073414,0.073823 c 0.068477,0.068844 0.071212,0.082744 0.040341,0.2074808 -0.018206,0.073543 -0.036412,0.1379406 -0.040456,0.1430598 -0.00403,0.00512 -0.074637,0.027057 -0.1568733,0.04875 -0.1443148,0.03807 -0.1518491,0.036917 -0.2171731,-0.032617 L 4.411655,1.8777211 4.5958631,1.6934551 Z m 2.5634149,0.03517 c 0.035318,0.00199 0.051941,0.027333 0.093678,0.093787 0.087144,0.1387955 0.1294133,0.2189619 0.1658093,0.3146742 0.025589,0.067303 0.020293,0.080613 -0.041377,0.1040603 -0.2057242,0.078216 -0.2644121,0.069991 -0.3852463,-0.05409 L 7.061389,1.8847458 7.0962754,1.7393643 c 0.032382,-0.1350147 0.043349,-0.1476437 0.1540294,-0.1771855 0.044083,-0.011758 0.072018,-0.018954 0.093203,-0.01776 z m -1.9515356,0.089724 c 0.048616,-9.449e-4 0.07576,0.025742 0.1550728,0.1082382 0.064779,0.067375 0.113395,0.1358293 0.1080699,0.1521719 -0.00533,0.016344 -0.023891,0.085086 -0.041262,0.1527521 -0.027964,0.1089234 -0.043723,0.1253073 -0.1374296,0.1428857 -0.058216,0.010924 -0.1219151,0.026011 -0.1415458,0.033545 -0.019631,0.00753 -0.09031,-0.043392 -0.157046,-0.1131719 C 5.0583299,1.9856259 5.0570058,1.9818307 5.0893592,1.8586266 5.129369,1.7062613 5.1481938,1.688009 5.3054284,1.6498692 c 0.037894,-0.0092 0.064433,-0.015299 0.086539,-0.015728 z m 0.7250497,0.2190879 c 0.065743,8.982e-4 0.1099696,0.029675 0.1730658,0.094773 0.1018237,0.1050562 0.111524,0.1532664 0.064707,0.3218126 -0.023517,0.084681 -0.048199,0.1114376 -0.1152083,0.1248366 -0.046904,0.00938 -0.1169354,0.02499 -0.1556529,0.034706 -0.055093,0.013831 -0.094786,-0.00724 -0.1825257,-0.097096 L 5.7893178,2.2174086 5.8248374,2.0634378 C 5.857277,1.9228707 5.8696974,1.906825 5.9667429,1.8798682 6.0303846,1.8621905 6.0775473,1.8526903 6.1169988,1.85323 Z M 4.2635478,2.026817 4.3322698,2.099943 c 0.064692,0.068863 0.066621,0.081928 0.032785,0.2229765 -0.032713,0.136356 -0.045723,0.1525744 -0.1445681,0.1800293 -0.157354,0.043706 -0.1948165,0.0384 -0.2663305,-0.037724 L 3.8900829,2.3969746 4.0767866,2.211896 Z m 2.6567387,0.021647 0.108588,0.1085866 0.108588,0.1085865 -0.035807,0.1601809 c -0.031432,0.1404664 -0.046256,0.1622227 -0.120188,0.1770114 -0.046371,0.00927 -0.1159567,0.024816 -0.154667,0.034532 -0.055093,0.013831 -0.094772,-0.00724 -0.1825242,-0.097096 L 6.532205,2.4254118 6.5674943,2.2724856 6.6027836,2.1195013 6.761571,2.0839831 Z m -2.012011,0.093613 0.115266,0.1153191 0.1152659,0.1152602 -0.035692,0.1546673 C 5.0705027,2.6686281 5.0582263,2.6846106 4.9610944,2.7115902 4.7906436,2.75894 4.7386365,2.7475631 4.6346381,2.6402632 4.5461702,2.5489817 4.5385712,2.5274454 4.5566908,2.4201305 4.5830139,2.2643437 4.6201022,2.2239101 4.7775195,2.1792209 Z m 2.7533123,0.1283771 c 0.010362,3.503e-4 0.017285,0.00173 0.019789,0.00423 0.010074,0.010031 0.00907,0.067437 -0.0023,0.1275639 -0.012953,0.069118 -0.06629,0.1578046 -0.145033,0.2411418 L 7.4094923,2.7751924 7.3395614,2.7007898 c -0.065944,-0.0702 -0.067873,-0.082963 -0.034181,-0.2233827 l 0.035692,-0.1488637 0.1610513,-0.03604 c 0.066419,-0.014864 0.1283482,-0.023105 0.1594264,-0.022054 z M 5.5999559,2.3770089 c 0.048559,-9.55e-4 0.075472,0.025711 0.1543187,0.1082383 0.1148485,0.1202024 0.116446,0.1248194 0.084208,0.2475838 -0.018062,0.068811 -0.046213,0.1371504 -0.062562,0.1518817 -0.016349,0.014732 -0.08546,0.040299 -0.1535646,0.056818 C 5.5010307,2.9709614 5.496195,2.9691177 5.3815033,2.8490794 5.2666548,2.7288771 5.2651148,2.7242601 5.297353,2.6014957 5.3373629,2.4491302 5.3561877,2.4308778 5.5134237,2.392738 5.5513327,2.383538 5.5778857,2.377445 5.5999487,2.37701 Z m -1.852527,0.1992975 c 0.017083,4.85e-5 0.030972,0.01196 0.051423,0.030469 0.067427,0.061015 0.074421,0.1278172 0.030123,0.2872809 C 3.8025792,2.9890716 3.7831212,3.0060614 3.6674005,3.035201 3.493546,3.0789787 3.4933675,3.0789355 3.4192946,3.0000887 L 3.3552212,2.9318373 3.5467995,2.7419417 C 3.6705423,2.6193042 3.7148079,2.5762129 3.7474318,2.5763055 Z m 2.5947565,0.00331 c 0.01894,-0.00193 0.085273,0.045664 0.1505465,0.1084124 0.119929,0.1153019 0.1218287,0.1203823 0.09257,0.2416062 -0.016436,0.068099 -0.044774,0.1387364 -0.063023,0.1569889 -0.018249,0.018252 -0.088943,0.046648 -0.1570474,0.063086 C 6.2441079,3.1789476 6.238826,3.1769226 6.1220576,3.0570844 L 6.0026756,2.9345692 6.0355182,2.7932508 c 0.030583,-0.131752 0.041032,-0.1434988 0.1540294,-0.1724846 0.066678,-0.017105 0.1346089,-0.035468 0.1509525,-0.0408 5.109e-4,-1.667e-4 0.00107,-2.859e-4 0.00173,-3.483e-4 z M 4.3766621,2.6802515 4.4931945,2.7967307 4.6096694,2.9132098 4.5739771,3.0620735 C 4.5398823,3.2041748 4.5323265,3.2124209 4.408457,3.2436119 4.2323459,3.2879567 4.241918,3.2906365 4.1171707,3.1628826 L 4.0064382,3.0494215 4.0410223,2.8995711 C 4.0752754,2.751157 4.0770168,2.7494278 4.2260997,2.7150149 Z m 2.7246994,0.1118363 c 0.034814,0.00103 0.053265,0.01851 0.090022,0.05763 L 7.2590552,2.9217414 7.0659096,3.114887 6.872764,3.3080327 6.8057834,3.2367633 c -0.06249,-0.066514 -0.064592,-0.081115 -0.031461,-0.2164764 0.019544,-0.079824 0.038815,-0.1493161 0.042888,-0.1544351 0.00403,-0.00512 0.074695,-0.027057 0.1569309,-0.04875 0.063138,-0.016656 0.1001398,-0.025812 0.1272113,-0.025013 z M 5.1195292,2.888254 5.2331688,3.0018893 5.3468084,3.1155246 5.3116918,3.2678124 C 5.2780288,3.4136177 5.2711062,3.4214674 5.1490732,3.4521946 4.9753914,3.4959277 4.984847,3.4986981 4.8572068,3.3679838 l -0.113582,-0.116364 0.035117,-0.1464261 c 0.03467,-0.1445006 0.037146,-0.1468369 0.1879803,-0.1816544 z m -1.914335,0.1958733 0.073471,0.073823 c 0.070435,0.07076 0.071946,0.07981 0.035865,0.220597 C 3.2850412,3.4936314 3.261136,3.5295404 3.204086,3.5445895 2.9804336,3.6035868 2.9785367,3.6035076 2.9069377,3.5272946 l -0.070161,-0.074693 0.1842081,-0.184266 z m 2.6572021,0.012132 0.1145031,0.114506 0.1145031,0.114506 -0.035232,0.1399267 C 6.0367847,3.5421614 5.9975664,3.617637 5.9689982,3.6329241 5.94043,3.6482114 5.8652459,3.6688783 5.8019108,3.6788304 5.6988062,3.695033 5.6766712,3.6863863 5.5901937,3.5965928 5.486974,3.4894081 5.4769715,3.4412645 5.5234578,3.2739678 5.5504429,3.1768459 5.5664181,3.1645695 5.7077235,3.1319528 Z M 3.8140554,3.2227789 c 0.056359,-9.804e-4 0.086467,0.022263 0.164766,0.098721 0.062433,0.060963 0.1085016,0.1258987 0.1024281,0.1442788 -0.00604,0.01838 -0.025129,0.08857 -0.04237,0.1560023 -0.025776,0.1008422 -0.046486,0.1256253 -0.1168347,0.1396935 -0.047033,0.00941 -0.11718,0.025048 -0.155886,0.034764 C 3.7111955,3.8100259 3.671603,3.7892006 3.5856076,3.701117 3.4772931,3.5901643 3.476041,3.5861029 3.507833,3.4545777 3.5461446,3.2960571 3.5870468,3.2576659 3.7461307,3.2307888 c 0.027388,-0.00462 0.04912,-0.00769 0.067902,-0.008 z m 2.7327086,0.09959 C 6.587335,3.32162 6.60888,3.3386919 6.6516964,3.3812759 l 0.073471,0.073068 -0.1765472,0.1784043 c -0.097103,0.098129 -0.1840081,0.1784043 -0.1931456,0.1784043 -0.00907,0 -0.044774,-0.028116 -0.079156,-0.062505 -0.058633,-0.058633 -0.060072,-0.071778 -0.02333,-0.211079 0.021545,-0.081702 0.043349,-0.1518525 0.048458,-0.1558861 0.00518,-0.00403 0.069514,-0.022247 0.143057,-0.040452 0.046745,-0.011571 0.077919,-0.018413 0.1022555,-0.018862 z m -1.9409747,0.092278 0.1073071,0.10731 0.1073646,0.10731 -0.03621,0.1618059 C 4.752445,3.9332101 4.737779,3.9548944 4.6637033,3.9697093 c -0.046371,0.00927 -0.1159568,0.024816 -0.154667,0.034532 -0.055093,0.013831 -0.094786,-0.00724 -0.1825257,-0.097094 L 4.2144393,3.7922923 4.2497286,3.639366 4.2850179,3.4863816 4.4454302,3.4505152 Z m -1.9217637,0.1883286 0.068483,0.068483 c 0.064645,0.064645 0.066463,0.077102 0.032791,0.2229764 C 2.7527318,4.0355284 2.740441,4.0514954 2.6433422,4.0784684 2.4856128,4.1222835 2.418652,4.1151206 2.3578024,4.0478838 2.3039502,3.9883785 2.3060803,3.9843444 2.4935496,3.7951927 Z M 5.321844,3.6253777 5.4383188,3.7419158 5.5547936,3.858395 5.5197346,4.0102765 C 5.4897848,4.1400381 5.4728885,4.1644687 5.40349,4.1783503 5.3588171,4.1872878 5.2906132,4.2025275 5.2518986,4.2122436 5.1966332,4.2261175 5.156796,4.2046302 5.0665305,4.1121886 L 4.9516244,3.9944905 4.9873167,3.8458009 C 5.0224045,3.6995253 5.025398,3.6965073 5.1723941,3.6612447 Z M 3.2823183,3.7439465 c 0.048789,-0.00101 0.076422,0.025711 0.1572791,0.1081807 0.1194972,0.1218733 0.1199577,0.1231427 0.087173,0.2561733 -0.01812,0.073543 -0.036239,0.1379405 -0.040283,0.1430598 -0.00403,0.00512 -0.074378,0.026968 -0.1562919,0.048576 L 3.1812731,4.3392266 3.0708286,4.2261138 C 2.9669036,4.1196817 2.9616073,4.1051702 2.9804609,3.9794004 3.0036177,3.8249738 3.0269472,3.8011636 3.1956594,3.7599062 c 0.037894,-0.00927 0.064476,-0.015499 0.086655,-0.015959 z m 2.7465796,0.1038271 c 0.044212,-0.00196 0.064318,0.014637 0.1067314,0.05705 l 0.071327,0.071327 -0.1873427,0.1856588 -0.1874003,0.185717 -0.065297,-0.069528 c -0.073543,-0.07828 -0.077645,-0.1092428 -0.034814,-0.2634278 0.027503,-0.098999 0.04355,-0.1118392 0.1811901,-0.1448593 0.053884,-0.012924 0.089087,-0.020766 0.1156113,-0.021938 z M 4.0250702,3.9518915 c 0.048559,-9.552e-4 0.075472,0.025711 0.1543187,0.1082382 0.1148485,0.1202024 0.1164461,0.1248194 0.084208,0.2475838 -0.018076,0.068811 -0.046227,0.1371505 -0.062562,0.1518817 -0.016349,0.014732 -0.08546,0.040299 -0.1535645,0.056818 C 3.926145,4.5458439 3.9213093,4.5440003 3.8066176,4.423962 3.6917691,4.3037596 3.6902292,4.2991426 3.7224673,4.176378 3.7624772,4.0240127 3.781302,4.0057603 3.938538,3.9676205 3.9764467,3.958424 4.003,3.9523275 4.0250774,3.9518929 Z M 2.153798,4.1365637 2.222513,4.2096897 c 0.064456,0.068611 0.066558,0.082318 0.033371,0.220655 C 2.222167,4.5708947 2.21437,4.5793514 2.0907125,4.6104885 1.918869,4.6537592 1.9183863,4.6537195 1.8444051,4.5749702 L 1.7803332,4.5067188 1.9670369,4.3216403 Z m 2.650993,0.0083 0.1066738,0.1092832 C 5.027767,4.3732568 5.033092,4.3951471 4.986505,4.5629055 4.9666727,4.6343376 4.9312971,4.6845226 4.890107,4.69964 4.6962807,4.7707727 4.6449831,4.7631219 4.5307448,4.6461304 L 4.4207608,4.533481 4.4563955,4.3877511 c 0.019616,-0.080139 0.038988,-0.1498964 0.043061,-0.1550155 0.00403,-0.00512 0.074436,-0.026968 0.1563509,-0.048576 z M 2.8017765,4.2551369 2.9183089,4.3716161 3.0347837,4.4880952 2.9990914,4.6369589 C 2.9649967,4.7790602 2.9574408,4.7873063 2.8335714,4.8184972 2.6572638,4.8628923 2.6672642,4.8657678 2.5394423,4.7348664 L 2.4258732,4.6185024 2.4609855,4.4720761 C 2.4956501,4.3275755 2.4981285,4.3252393 2.6489657,4.2904218 Z M 5.4874748,4.378697 c 0.062951,-0.00396 0.1019245,0.014536 0.1410853,0.057804 0.054229,0.059914 0.052286,0.063502 -0.1378327,0.2536196 L 5.2978726,4.8829183 5.2289203,4.8095016 C 5.1643,4.7407133 5.1621412,4.7268725 5.195027,4.5897752 5.2269486,4.4566948 5.2403476,4.4403322 5.3430204,4.4095716 5.4032943,4.3915154 5.4497087,4.3810682 5.4874734,4.3786964 Z M 3.5446435,4.4631394 3.6582831,4.5767747 3.7719227,4.69041 3.7368061,4.8426978 C 3.7031431,4.9885031 3.6962206,4.9963528 3.5741875,5.02708 3.3906803,5.0732871 3.3762753,5.0699826 3.2658969,4.9561013 l -0.099881,-0.103073 0.035692,-0.1594845 0.035692,-0.1594844 0.1536236,-0.035461 z m -1.9153799,0.1980788 0.072835,0.068425 c 0.040073,0.037647 0.067818,0.083746 0.061635,0.1024339 -0.00619,0.01869 -0.025365,0.08915 -0.042599,0.1565826 -0.025773,0.1008422 -0.046483,0.1256253 -0.1168274,0.1396936 -0.047037,0.00941 -0.1175283,0.025121 -0.1566406,0.034938 -0.051492,0.012919 -0.089209,-0.00136 -0.1366755,-0.05189 L 1.245468,5.0415841 1.4373369,4.8513983 Z m 2.6049705,0.030004 c 0.043493,0.00225 0.072363,0.030272 0.1487476,0.1048144 0.1198282,0.1169426 0.1217999,0.1222316 0.09257,0.2433472 C 4.4591157,5.1074828 4.4304037,5.1797365 4.4117667,5.199971 4.3931287,5.220206 4.3180597,5.24473 4.2449125,5.254466 4.1195865,5.271148 4.105655,5.265591 4.0044084,5.158242 L 3.8969853,5.0443172 3.9351098,4.9006759 c 0.020984,-0.079014 0.042629,-0.1464464 0.048055,-0.1498504 0.00547,-0.00341 0.070032,-0.021528 0.143575,-0.040278 0.050027,-0.012751 0.081387,-0.02067 0.1074798,-0.019326 z m -1.9461976,0.090304 0.10731,0.10731 0.1073675,0.10731 -0.036215,0.1618059 C 2.43469,5.3000894 2.420031,5.3217737 2.345957,5.3365885 c -0.046374,0.00927 -0.1159567,0.024816 -0.1546674,0.034532 -0.055091,0.013831 -0.094779,-0.00724 -0.182525,-0.097096 l -0.112068,-0.114859 0.035286,-0.1529263 0.035287,-0.1529845 0.160413,-0.035867 z m 2.6937076,0.1158416 c 0.035203,0.00153 0.055452,0.019297 0.095059,0.058732 L 5.1502741,5.0292258 4.9737283,5.20763 C 4.8766253,5.305759 4.789051,5.3860344 4.7791306,5.3860344 c -0.00993,0 -0.046501,-0.030266 -0.081315,-0.067323 -0.058892,-0.062689 -0.06072,-0.0776 -0.025934,-0.2139227 0.036282,-0.1422106 0.041665,-0.1476307 0.1843822,-0.1842079 0.061641,-0.015801 0.098096,-0.024405 0.1254699,-0.023214 z m -1.9776529,0.09489 0.1193245,0.1193806 0.119382,0.1193231 -0.03598,0.1499082 c -0.035548,0.1481899 -0.037606,0.1502582 -0.183454,0.1815384 -0.081142,0.017403 -0.1508488,0.031629 -0.1548987,0.031629 -0.00403,0 -0.057309,-0.051077 -0.1182796,-0.1135201 L 2.6393349,5.3669976 2.671835,5.2155804 C 2.7040775,5.0652287 2.705321,5.0639514 2.8541837,5.0282401 Z m -1.9070226,0.203244 0.077304,0.077304 c 0.042537,0.042537 0.068259,0.092111 0.057108,0.1101538 -0.021542,0.034855 -0.061234,0.036058 -0.2196103,0.00662 L 0.91303407,5.371183 1.0050223,5.2833742 Z m 2.6498911,0.00476 0.1164749,0.1165367 0.1164748,0.1164792 -0.035117,0.1522878 C 3.9111442,5.7313749 3.9042072,5.7392245 3.7821742,5.7699518 3.6084924,5.8136849 3.617948,5.8164554 3.4903092,5.685741 L 3.3767272,5.5693785 3.4124195,5.4206886 C 3.4475073,5.2744132 3.4505008,5.2713952 3.5974983,5.2361325 Z M 1.7088898,5.3202855 c 0.043002,0.00226 0.072286,0.029573 0.147587,0.1015057 C 1.9769655,5.5368901 1.9779413,5.539544 1.9480578,5.6701294 1.9314498,5.7427114 1.9100868,5.8005041 1.9005838,5.798623 1.8910838,5.796733 1.8008768,5.739912 1.7001836,5.6723357 1.5994899,5.6047593 1.4925169,5.5341476 1.4624663,5.515405 1.3793076,5.4635389 1.4467905,5.3793757 1.6037847,5.3390899 c 0.048588,-0.012463 0.079303,-0.020156 0.1051036,-0.018803 z m 2.7600441,0.10847 c 0.036657,0.0013 0.057453,0.017091 0.094311,0.051711 l 0.070104,0.06593 -0.1856013,0.1872838 c -0.1020831,0.1029963 -0.1939187,0.1872255 -0.204114,0.1872255 -0.038671,0 -0.1168634,-0.1110505 -0.1167195,-0.1657524 9.21e-5,-0.031399 0.013385,-0.1049525 0.029662,-0.1634309 0.026942,-0.096972 0.04309,-0.1094184 0.1830481,-0.1417256 0.062692,-0.014471 0.1008019,-0.02225 0.1293125,-0.021241 z m -2.0365605,0.109109 c 0.065743,8.983e-4 0.1099681,0.029675 0.173065,0.094773 0.1018238,0.1050562 0.1115269,0.1532663 0.064711,0.3218127 -0.023521,0.084681 -0.048205,0.1114376 -0.1152026,0.1248366 -0.046907,0.00938 -0.1169426,0.02499 -0.155654,0.034706 C 2.3442015,6.127824 2.304514,6.106754 2.216768,6.0168987 l -0.1120695,-0.11486 0.035518,-0.153971 c 0.032447,-0.1405672 0.04486,-0.1566129 0.1418998,-0.1835696 0.063637,-0.017678 0.1108101,-0.027178 0.1502566,-0.026638 z m -1.54162484,0.056179 c 0.21941424,0 0.43503604,0.080004 0.72365784,0.268419 0.5704569,0.3723983 1.0266083,1.0296724 1.0266083,1.4792936 0,0.1989805 -0.050761,0.2895793 -0.1961054,0.3503086 -0.1218158,0.050899 -0.188987,0.049837 -0.3980147,-0.00633 C 1.4194585,7.5171469 0.65859564,6.7273474 0.53086407,6.1120681 0.46077998,5.7744749 0.58612765,5.5940339 0.89074856,5.5940339 Z m 2.34815894,0.1383594 0.1073071,0.10731 0.1073647,0.10731 -0.03621,0.1618059 c -0.031806,0.1421372 -0.046472,0.1638215 -0.1205478,0.1786365 -0.046371,0.00927 -0.1159567,0.024816 -0.1546684,0.034532 -0.055093,0.013831 -0.094772,-0.00724 -0.1825243,-0.097095 L 2.8475576,6.1100491 2.8828469,5.9571228 2.9181362,5.8041385 3.0785499,5.7682721 Z m 0.6805942,0.2251237 c 0.043824,-0.00181 0.064088,0.014749 0.106386,0.05705 L 4.0972146,6.085904 3.9098719,6.271563 3.7224717,6.4572799 3.6537496,6.3841539 C 3.5892301,6.3154809 3.5872152,6.3019149 3.6205472,6.1629187 3.6554479,6.0174207 3.6586861,6.0142408 3.8053353,5.9790589 3.858442,5.9663219 3.8931987,5.9586164 3.919493,5.9575269 Z M 2.6582516,6.2696954 c 0.04853,-0.0011 0.075322,0.025559 0.1542613,0.1081807 0.113985,0.1192986 0.1162014,0.1255634 0.084208,0.2413741 -0.018062,0.065406 -0.043651,0.1356062 -0.056877,0.1560023 C 2.7944941,6.8452079 2.7356824,6.8121796 2.654649,6.6711937 2.6100308,6.5935644 2.5405719,6.4857493 2.5002719,6.4315608 2.4599713,6.3773718 2.4316808,6.3291916 2.4374175,6.3245415 c 0.00574,-0.00465 0.066139,-0.022119 0.1342389,-0.038827 0.037959,-0.00931 0.064531,-0.015519 0.086591,-0.016018 z m 0.7584797,0.2070164 c 0.034814,0.00103 0.053265,0.01851 0.090022,0.05763 L 3.574425,6.6063654 3.3812794,6.7995111 3.1881338,6.9926567 3.1211532,6.9213873 c -0.06249,-0.066513 -0.064592,-0.081115 -0.031461,-0.2164764 0.019544,-0.079824 0.038815,-0.1493162 0.042888,-0.1544351 0.00403,-0.00512 0.074695,-0.027057 0.1569309,-0.04875 0.063138,-0.016656 0.1001399,-0.025812 0.1272113,-0.025013 z M 2.8681698,7.001188 c 0.021473,-0.00154 0.052186,0.017597 0.092052,0.057456 l 0.080667,0.08067 -0.091519,0.091581 -0.091577,0.091581 -0.019444,-0.1419574 c -0.016018,-0.1168461 -0.0059,-0.1767683 0.029835,-0.179333 z" /></g></svg>
