<?xml version="1.0" encoding="UTF-8" standalone="no"?>
<!-- Created with Inkscape (http://www.inkscape.org/) -->

<svg
   width="8.4666662mm"
   height="8.4666662mm"
   viewBox="0 0 8.4666662 8.4666662"
   version="1.1"
   id="svg1"
   xml:space="preserve"
   sodipodi:docname="dark_light_mode.svg"
   inkscape:version="1.4.2 (ebf0e94, 2025-05-08)"
   inkscape:export-filename="../png/dark_light_mode.png"
   inkscape:export-xdpi="96"
   inkscape:export-ydpi="96"
   xmlns:inkscape="http://www.inkscape.org/namespaces/inkscape"
   xmlns:sodipodi="http://sodipodi.sourceforge.net/DTD/sodipodi-0.dtd"
   xmlns="http://www.w3.org/2000/svg"
   xmlns:svg="http://www.w3.org/2000/svg"><sodipodi:namedview
     id="namedview1"
     pagecolor="#505050"
     bordercolor="#eeeeee"
     borderopacity="1"
     inkscape:showpageshadow="0"
     inkscape:pageopacity="0"
     inkscape:pagecheckerboard="0"
     inkscape:deskcolor="#505050"
     inkscape:document-units="mm"
     inkscape:zoom="5.6568543"
     inkscape:cx="61.51829"
     inkscape:cy="15.909903"
     inkscape:window-width="1920"
     inkscape:window-height="1008"
     inkscape:window-x="0"
     inkscape:window-y="0"
     inkscape:window-maximized="1"
     inkscape:current-layer="g27" /><defs
     id="defs1" /><g
     id="g27"
     transform="matrix(0.88354263,0,0,0.88354263,0.57739847,0.49318132)"><path
       id="path1"
       style="fill:#d4aa00;stroke-width:0.3;stroke-linecap:round"
       d="m 4.3811279,1.6846517 v 0 C 3.5532789,2.1176036 3.0059752,3.0244374 3.0060181,3.8690145 3.0059085,5.197678 4.3531602,6.4056511 5.764506,6.2735189 v 0 C 6.4069592,5.7919749 6.7854099,5.0362219 6.7861491,4.2333333 6.7863484,2.8809508 5.731749,1.7631163 4.3816447,1.6846517 Z"
       sodipodi:nodetypes="cccccccc" /><path
       style="baseline-shift:baseline;display:inline;overflow:visible;vector-effect:none;fill:#d4aa00;stroke-width:0.714481;stroke-linecap:round;enable-background:accumulate;stop-color:#000000"
       d="m 4.5012609,0.48121988 c 0,-0.0963783 -0.048285,-0.18483732 -0.093496,-0.25258017 -0.045212,-0.0677428 -0.090706,-0.11442853 -0.090706,-0.11442853 a 0.05358606,0.05358606 0 0 0 -0.076751,-0.002794 0.05358606,0.05358606 0 0 0 -0.00139,0.0767509 c 0,0 0.039841,0.0409883 0.079542,0.10047386 0.039701,0.0594855 0.075355,0.13581301 0.075355,0.19257493 0,0.0184765 -0.015851,0.0670783 -0.04605,0.12140586 -0.0302,0.0543277 -0.071972,0.11640143 -0.1144286,0.18001572 -0.042457,0.0636145 -0.08513,0.12815241 -0.1186149,0.18838843 -0.033484,0.0602357 -0.060005,0.11494502 -0.060005,0.17303832 0,0.096378 0.048285,0.1848373 0.093497,0.2525801 0.045209,0.067746 0.090703,0.1158267 0.090703,0.1158267 a 0.05358606,0.05358606 0 0 0 0.075355,0.00139 0.05358606,0.05358606 0 0 0 0.00279,-0.075355 c 0,0 -0.039841,-0.042384 -0.079542,-0.1018693 -0.039701,-0.059486 -0.075355,-0.135813 -0.075355,-0.192575 0,-0.018477 0.015851,-0.065683 0.04605,-0.1200104 0.0302,-0.0543277 0.071972,-0.11779683 0.1144287,-0.18141113 0.042457,-0.0636142 0.08513,-0.12815241 0.1186149,-0.18838843 0.033484,-0.0602361 0.060005,-0.11494516 0.060005,-0.17303831 z"
       id="use14"
       inkscape:transform-center-y="-3.4222466"
       inkscape:transform-center-x="-0.044441732"
       inkscape:tile-x0="4.0547164"
       inkscape:tile-y0="0.096577639" /><path
       style="baseline-shift:baseline;display:inline;overflow:visible;vector-effect:none;fill:#d4aa00;stroke-width:0.714481;stroke-linecap:round;enable-background:accumulate;stop-color:#000000"
       d="M 5.9173409,0.86939852 C 5.9542233,0.78035658 5.9434656,0.68015324 5.9276201,0.6002655 5.9117737,0.52037743 5.8876086,0.45983564 5.8876086,0.45983564 a 0.05358606,0.05358606 0 0 0 -0.06984,-0.0319526 0.05358606,0.05358606 0 0 0 -0.030655,0.0703766 c 0,0 0.021123,0.0531147 0.035038,0.12326515 0.013915,0.0701503 0.017646,0.15431197 -0.00408,0.20675315 -0.00707,0.0170701 -0.040314,0.0559064 -0.089005,0.0945418 -0.048691,0.0386352 -0.1110383,0.0799985 -0.1746072,0.12252296 -0.063569,0.042525 -0.1276917,0.085819 -0.181679,0.1286562 -0.053986,0.042837 -0.099425,0.083233 -0.1216563,0.1369037 -0.036882,0.089042 -0.026125,0.1892452 -0.010278,0.2691333 0.015842,0.07989 0.039474,0.1417205 0.039474,0.1417205 a 0.05358606,0.05358606 0 0 0 0.069087,0.030121 0.05358606,0.05358606 0 0 0 0.031415,-0.068551 c 0,0 -0.020589,-0.054404 -0.034504,-0.1245544 -0.013915,-0.070151 -0.017645,-0.1543119 0.00408,-0.2067532 0.00707,-0.01707 0.03978,-0.054617 0.088471,-0.093253 0.048691,-0.038635 0.1115723,-0.081287 0.1751413,-0.123812 0.063569,-0.042524 0.1276917,-0.08582 0.1816791,-0.1286563 0.053986,-0.0428371 0.099425,-0.0832325 0.1216562,-0.13690362 z"
       id="use15"
       inkscape:transform-center-y="-3.4222466"
       inkscape:transform-center-x="-0.044441732"
       inkscape:tile-x0="4.0547164"
       inkscape:tile-y0="0.096577639" /><path
       style="baseline-shift:baseline;display:inline;overflow:visible;vector-effect:none;fill:#d4aa00;stroke-width:0.714481;stroke-linecap:round;enable-background:accumulate;stop-color:#000000"
       d="m 7.0770787,1.7699392 c 0.06815,-0.06815 0.096557,-0.1648424 0.1124895,-0.2447128 0.015932,-0.079871 0.016774,-0.145052 0.016774,-0.145052 a 0.05358606,0.05358606 0 0 0 -0.052296,-0.056247 0.05358606,0.05358606 0 0 0 -0.055254,0.053288 c 0,0 -8.112e-4,0.057155 -0.014801,0.1272904 -0.01399,0.070135 -0.04275,0.1493183 -0.082887,0.1894551 -0.013065,0.013065 -0.05864,0.036223 -0.1184092,0.053285 -0.05977,0.017061 -0.1332001,0.031416 -0.2082036,0.046377 -0.075004,0.014961 -0.1508134,0.030421 -0.2170841,0.049337 -0.06627,0.018916 -0.1237084,0.038848 -0.1647865,0.079927 -0.06815,0.06815 -0.096557,0.1648423 -0.1124888,0.2447134 -0.015936,0.079871 -0.017765,0.1460386 -0.017765,0.1460386 a 0.05358606,0.05358606 0 0 0 0.052301,0.054267 0.05358606,0.05358606 0 0 0 0.055257,-0.051311 c 0,0 0.0018,-0.058142 0.015788,-0.1282772 0.01399,-0.070136 0.04275,-0.1493183 0.082887,-0.1894551 0.013065,-0.013065 0.057653,-0.035236 0.1174225,-0.052298 0.05977,-0.017061 0.1341868,-0.032403 0.2091903,-0.047364 0.075004,-0.01496 0.1508135,-0.030422 0.2170842,-0.049337 0.06627,-0.018917 0.1237084,-0.038849 0.1647865,-0.079927 z"
       id="use16"
       inkscape:transform-center-y="-3.4222466"
       inkscape:transform-center-x="-0.044441732"
       inkscape:tile-x0="4.0547164"
       inkscape:tile-y0="0.096577639" /><path
       style="baseline-shift:baseline;display:inline;overflow:visible;vector-effect:none;fill:#d4aa00;stroke-width:0.714481;stroke-linecap:round;enable-background:accumulate;stop-color:#000000"
       d="M 7.8039148,3.0457427 C 7.8929567,3.0088603 7.9562043,2.930399 8.001489,2.8627054 8.0467733,2.7950109 8.0724955,2.7351141 8.0724955,2.7351141 a 0.05358606,0.05358606 0 0 0 -0.02679,-0.071978 0.05358606,0.05358606 0 0 0 -0.071441,0.028087 c 0,0 -0.022622,0.052494 -0.062386,0.1119369 -0.039765,0.059443 -0.096638,0.1215924 -0.149079,0.1433142 -0.01707,0.00707 -0.068038,0.011025 -0.1297869,0.00392 C 7.5712635,2.9432789 7.4979294,2.9284412 7.42291,2.9135606 7.3478903,2.8986796 7.2719348,2.8839525 7.2034698,2.8760678 7.1350055,2.8681838 7.0743116,2.864618 7.0206404,2.8868493 6.9315987,2.9237316 6.8683508,3.002193 6.8230665,3.0698875 6.7777781,3.1375804 6.7507671,3.1980111 6.7507671,3.1980111 a 0.05358606,0.05358606 0 0 0 0.027553,0.070151 0.05358606,0.05358606 0 0 0 0.070687,-0.026259 c 0,0 0.023911,-0.053028 0.063675,-0.1124709 0.039765,-0.059443 0.096638,-0.1215924 0.149079,-0.1433142 0.017071,-0.00707 0.066749,-0.010491 0.1284978,-0.00338 0.061749,0.00711 0.1363725,0.021415 0.211392,0.036295 0.075019,0.014881 0.1509752,0.029608 0.2194401,0.037493 0.068465,0.00788 0.1291584,0.01145 0.1828295,-0.010781 z"
       id="use17"
       inkscape:transform-center-y="-3.4222466"
       inkscape:transform-center-x="-0.044441732"
       inkscape:tile-x0="4.0547164"
       inkscape:tile-y0="0.096577639" /><path
       style="baseline-shift:baseline;display:inline;overflow:visible;vector-effect:none;fill:#d4aa00;stroke-width:0.714481;stroke-linecap:round;enable-background:accumulate;stop-color:#000000"
       d="m 7.9871948,4.5025796 c 0.096378,0 0.1848373,-0.048285 0.2525802,-0.093496 0.067743,-0.045212 0.1144285,-0.090706 0.1144285,-0.090706 a 0.05358606,0.05358606 0 0 0 0.00279,-0.076751 0.05358606,0.05358606 0 0 0 -0.076751,-0.00139 c 0,0 -0.040988,0.039841 -0.1004738,0.079542 -0.059486,0.039701 -0.135813,0.075355 -0.192575,0.075355 -0.018476,0 -0.067078,-0.015851 -0.1214058,-0.04605 C 7.8114643,4.3188836 7.7493905,4.2771116 7.6857762,4.234655 7.6221617,4.192198 7.5576238,4.149525 7.4973878,4.1160401 7.4371521,4.0825561 7.3824428,4.0560351 7.3243495,4.0560351 c -0.096378,0 -0.1848373,0.048285 -0.2525801,0.093497 -0.067746,0.045209 -0.1158267,0.090703 -0.1158267,0.090703 a 0.05358606,0.05358606 0 0 0 -0.00139,0.075355 0.05358606,0.05358606 0 0 0 0.075355,0.00279 c 0,0 0.042384,-0.039841 0.1018693,-0.079542 0.059486,-0.039701 0.135813,-0.075355 0.192575,-0.075355 0.018477,0 0.065683,0.015851 0.1200104,0.04605 0.054328,0.0302 0.1177968,0.071972 0.1814111,0.1144287 0.063614,0.042457 0.1281524,0.08513 0.1883885,0.1186149 0.060236,0.033484 0.1149451,0.060005 0.1730383,0.060005 z"
       id="use18"
       inkscape:transform-center-y="-3.4222466"
       inkscape:transform-center-x="-0.044441732"
       inkscape:tile-x0="4.0547164"
       inkscape:tile-y0="0.096577639" /><path
       style="baseline-shift:baseline;display:inline;overflow:visible;vector-effect:none;fill:#d4aa00;stroke-width:0.714481;stroke-linecap:round;enable-background:accumulate;stop-color:#000000"
       d="m 7.5990162,5.9186596 c 0.089042,0.036882 0.1892453,0.026125 0.269133,0.010279 0.079888,-0.015846 0.1404299,-0.040012 0.1404299,-0.040012 a 0.05358606,0.05358606 0 0 0 0.031953,-0.069839 0.05358606,0.05358606 0 0 0 -0.070377,-0.030655 c 0,0 -0.053115,0.021123 -0.1232652,0.035038 -0.07015,0.013915 -0.154312,0.017646 -0.2067531,-0.00408 -0.01707,-0.00707 -0.055906,-0.040314 -0.094542,-0.089005 C 7.5069597,5.6816975 7.4655965,5.6193506 7.423072,5.5557817 7.3805475,5.4922123 7.3372525,5.42809 7.2944158,5.3741027 7.251579,5.3201163 7.2111833,5.2746777 7.1575121,5.2524464 7.0684705,5.2155641 6.9682669,5.2263217 6.8883788,5.2421681 c -0.07989,0.015842 -0.1417205,0.039474 -0.1417205,0.039474 a 0.05358606,0.05358606 0 0 0 -0.030121,0.069087 0.05358606,0.05358606 0 0 0 0.068551,0.031415 c 0,0 0.054404,-0.020589 0.1245544,-0.034503 0.070151,-0.013915 0.1543119,-0.017646 0.2067532,0.00408 0.01707,0.00707 0.054617,0.03978 0.093253,0.088471 0.038635,0.048692 0.081288,0.1115723 0.123812,0.1751413 0.042524,0.063569 0.08582,0.1276917 0.1286563,0.1816791 0.042837,0.053986 0.083232,0.099425 0.1369036,0.1216562 z"
       id="use19"
       inkscape:transform-center-y="-3.4222466"
       inkscape:transform-center-x="-0.044441732"
       inkscape:tile-x0="4.0547164"
       inkscape:tile-y0="0.096577639" /><path
       style="baseline-shift:baseline;display:inline;overflow:visible;vector-effect:none;fill:#d4aa00;stroke-width:0.714481;stroke-linecap:round;enable-background:accumulate;stop-color:#000000"
       d="m 6.6984755,7.0783974 c 0.06815,0.06815 0.1648424,0.096557 0.2447128,0.1124895 0.079871,0.015932 0.145052,0.016774 0.145052,0.016774 a 0.05358606,0.05358606 0 0 0 0.056247,-0.052295 0.05358606,0.05358606 0 0 0 -0.053288,-0.055254 c 0,0 -0.057155,-8.112e-4 -0.1272904,-0.014801 C 6.8937731,7.071321 6.8145902,7.0425605 6.7744534,7.0024238 6.7613886,6.9893589 6.7382303,6.9437839 6.7211688,6.8840146 6.7041079,6.8242445 6.6897524,6.7508145 6.6747917,6.675811 6.6598311,6.6008071 6.6443703,6.5249976 6.6254544,6.4587269 6.6065381,6.392457 6.5866059,6.3350185 6.5455277,6.2939404 6.4773782,6.2257908 6.3806854,6.1973833 6.3008143,6.1814516 6.220943,6.1655156 6.1547757,6.1636865 6.1547757,6.1636865 a 0.05358606,0.05358606 0 0 0 -0.054267,0.052301 0.05358606,0.05358606 0 0 0 0.051311,0.055257 c 0,0 0.058142,0.0018 0.1282772,0.015788 0.070136,0.01399 0.1493183,0.04275 0.1894551,0.082887 0.013065,0.013065 0.035236,0.057653 0.052298,0.1174225 0.017061,0.05977 0.032403,0.1341868 0.047364,0.2091903 0.01496,0.075004 0.030422,0.1508135 0.049337,0.2170842 0.018917,0.06627 0.038849,0.1237084 0.079927,0.1647865 z"
       id="use20"
       inkscape:transform-center-y="-3.4222466"
       inkscape:transform-center-x="-0.044441732"
       inkscape:tile-x0="4.0547164"
       inkscape:tile-y0="0.096577639" /><path
       id="path23"
       style="fill:#000080;stroke-width:0.3;stroke-linecap:round"
       d="M 4.0970292,1.6805176 A 2.5526054,2.5526054 0 0 0 1.5442135,4.2333333 2.5526054,2.5526054 0 0 0 4.0970292,6.7861491 2.5526054,2.5526054 0 0 0 5.4090938,6.4228638 2.5526054,2.5526054 0 0 1 2.8567949,3.870048 2.5526054,2.5526054 0 0 1 4.0970292,1.6805176 Z" /></g></svg>
