<?xml version="1.0" encoding="UTF-8" standalone="no"?>
<!-- Created with Inkscape (http://www.inkscape.org/) -->

<svg
   width="8.4666662mm"
   height="8.4666662mm"
   viewBox="0 0 8.4666662 8.4666662"
   version="1.1"
   id="svg1"
   xml:space="preserve"
   xmlns="http://www.w3.org/2000/svg"
   xmlns:svg="http://www.w3.org/2000/svg"><defs
     id="defs1" /><g
     id="layer1"
     transform="translate(-38.322578,-63.748138)"><path
       id="path7"
       style="fill:#800000;stroke-width:0.168733"
       d="m 43.00484,64.207018 c -0.0072,3.39e-4 -0.01454,0.0012 -0.0217,0.0026 l -1.223697,0.230477 c -0.0076,8.42e-4 -0.01493,0.0022 -0.02222,0.0041 -0.04667,0.0125 -0.08667,0.04739 -0.10387,0.09663 l -0.0987,0.28267 c -0.02765,0.07915 0.01387,0.165101 0.09302,0.192753 0.07914,0.02765 0.165101,-0.01387 0.192753,-0.09302 l 0.07338,-0.209806 1.03818,-0.204122 0.12454,0.181384 c 0.04745,0.06912 0.14172,0.08672 0.21084,0.03927 0.06912,-0.04745 0.0862,-0.141203 0.03876,-0.210323 l -0.169499,-0.247013 c -0.03084,-0.04493 -0.08125,-0.068 -0.131774,-0.06563 z m 2.019515,0.478007 -2.542481,0.420646 c -1.618791,0.267618 -2.564369,0.453453 -2.603459,0.512113 -0.07921,0.118881 -0.01727,0.457636 0.106454,0.58136 0.06776,0.06775 0.110794,0.401979 0.146244,1.131714 0.02767,0.569598 0.09184,1.672765 0.14211,2.45153 l 0.09147,1.415934 0.117822,0.179834 c 0.06481,0.09891 0.217472,0.223389 0.339514,0.276469 v -5.16e-4 c 0.27118,0.11794 2.804485,0.141261 3.207039,0.02945 0.548481,-0.152329 0.563123,-0.212832 0.718303,-2.898014 0.05777,-0.999543 0.120676,-1.997933 0.139526,-2.218986 l 0.03411,-0.402043 -2.18333,-0.0078 -2.182812,-0.0083 2.270662,-0.381372 c 1.248903,-0.209903 2.310449,-0.414939 2.359029,-0.455269 0.124194,-0.10307 0.109889,-0.293615 -0.03566,-0.473356 z m -3.9672,1.936833 c 0.09681,0 0.174666,0.07786 0.174666,0.174666 v 4.067452 c 0,0.09681 -0.07786,0.174666 -0.174666,0.174666 -0.09681,0 -0.174667,-0.07786 -0.174667,-0.174666 v -4.067452 c 0,-0.09681 0.07786,-0.174666 0.174667,-0.174666 z m 0.709517,0 c 0.09681,0 0.175183,0.07786 0.175183,0.174666 v 4.067452 c 0,0.09681 -0.07838,0.174666 -0.175183,0.174666 -0.09681,0 -0.174666,-0.07786 -0.174666,-0.174666 v -4.067452 c 0,-0.09681 0.07786,-0.174666 0.174666,-0.174666 z m 0.710034,0 c 0.09681,0 0.174667,0.07786 0.174667,0.174666 v 4.067452 c 0,0.09681 -0.07786,0.174666 -0.174667,0.174666 -0.09681,0 -0.174666,-0.07786 -0.174666,-0.174666 v -4.067452 c 0,-0.09681 0.07786,-0.174666 0.174666,-0.174666 z m 0.709518,0 c 0.09681,0 0.174666,0.07786 0.174666,0.174666 v 4.067452 c 0,0.09681 -0.07786,0.174666 -0.174666,0.174666 -0.09681,0 -0.174667,-0.07786 -0.174667,-0.174666 v -4.067452 c 0,-0.09681 0.07786,-0.174666 0.174667,-0.174666 z m 0.710034,0 c 0.09681,0 0.174666,0.07786 0.174666,0.174666 v 4.067452 c 0,0.09681 -0.07786,0.174666 -0.174666,0.174666 -0.09681,0 -0.174666,-0.07786 -0.174666,-0.174666 v -4.067452 c 0,-0.09681 0.07786,-0.174666 0.174666,-0.174666 z" /></g></svg>
