<?xml version="1.0" encoding="UTF-8" standalone="no"?>
<!-- Created with Inkscape (http://www.inkscape.org/) -->

<svg
   width="8.4666662mm"
   height="8.4666662mm"
   viewBox="0 0 8.4666662 8.4666662"
   version="1.1"
   id="svg1"
   sodipodi:docname="duplicate.svg"
   inkscape:version="1.4.2 (ebf0e94, 2025-05-08)"
   inkscape:export-filename="../png/duplicate.png"
   inkscape:export-xdpi="96"
   inkscape:export-ydpi="96"
   xmlns:inkscape="http://www.inkscape.org/namespaces/inkscape"
   xmlns:sodipodi="http://sodipodi.sourceforge.net/DTD/sodipodi-0.dtd"
   xmlns="http://www.w3.org/2000/svg"
   xmlns:svg="http://www.w3.org/2000/svg">
  <sodipodi:namedview
     id="namedview1"
     pagecolor="#505050"
     bordercolor="#eeeeee"
     borderopacity="1"
     inkscape:showpageshadow="0"
     inkscape:pageopacity="0"
     inkscape:pagecheckerboard="0"
     inkscape:deskcolor="#505050"
     inkscape:document-units="mm"
     inkscape:zoom="8.9051265"
     inkscape:cx="-4.267205"
     inkscape:cy="19.427012"
     inkscape:window-width="1920"
     inkscape:window-height="1008"
     inkscape:window-x="0"
     inkscape:window-y="0"
     inkscape:window-maximized="1"
     inkscape:current-layer="svg1" />
  <defs
     id="defs1" />
  <g
     id="g1"
     transform="translate(-0.16059349,-0.16059343)"
     style="fill:#45bf00;fill-opacity:1">
    <path
       id="rect1"
       style="baseline-shift:baseline;display:inline;overflow:visible;vector-effect:none;fill:#45bf00;stroke-linecap:round;enable-background:accumulate;stop-color:#000000;fill-opacity:1"
       d="m 1.7764708,0.58106259 c -0.2550911,0 -0.4650879,0.20948011 -0.4650879,0.46457111 V 6.362105 c 0,0.255091 0.2099968,0.4650879 0.4650879,0.4650879 H 2.5195779 V 6.5264361 H 1.7764708 c -0.09408,0 -0.1658814,-0.070251 -0.1658814,-0.1643311 V 1.0456337 c 0,-0.0940802 0.071801,-0.16381426 0.1658814,-0.16381427 h 3.8555786 c 0.09408,0 0.1638143,0.0697341 0.1638143,0.16381427 V 1.7892575 H 6.0966205 V 1.0456337 c 0,-0.255091 -0.20948,-0.46457111 -0.4645711,-0.46457111 z" />
    <path
       style="baseline-shift:baseline;display:inline;overflow:visible;vector-effect:none;fill:#45bf00;stroke-linecap:round;enable-background:accumulate;stop-color:#000000;fill-opacity:1"
       d="m 3.1561578,1.9606967 c -0.255091,0 -0.4648437,0.2097528 -0.4648437,0.4648438 v 5.3144531 c 0,0.255091 0.2097527,0.4667969 0.4648437,0.4667969 h 3.8554688 c 0.255091,0 0.4648437,-0.2117059 0.4648437,-0.4667969 V 2.4255405 c 0,-0.255091 -0.2097527,-0.4648438 -0.4648437,-0.4648438 z m 0,0.2988281 h 3.8554688 c 0.09408,0 0.1640625,0.071935 0.1640625,0.1660157 v 5.3144531 c 0,0.09408 -0.069982,0.1660156 -0.1640625,0.1660156 H 3.1561578 c -0.09408,0 -0.1660156,-0.071935 -0.1660156,-0.1660156 V 2.4255405 c 0,-0.09408 0.071936,-0.1660157 0.1660156,-0.1660157 z"
       id="rect2" />
    <path
       d="M 6.6384953,4.7007255 H 5.4669103 V 3.5291405 H 4.700874 V 4.7007254 H 3.529289 v 0.7660363 h 1.1715851 v 1.171585 h 0.7660362 v -1.171585 h 1.171585 z"
       id="text3"
       style="font-weight:bold;font-size:6.43728px;font-family:'Nimbus Sans';-inkscape-font-specification:'Nimbus Sans Bold';fill:#45bf00;stroke-width:0.608247;stroke-linecap:round;fill-opacity:1"
       aria-label="+" />
  </g>
</svg>
