<?xml version="1.0" encoding="UTF-8" standalone="no"?>
<!-- Created with Inkscape (http://www.inkscape.org/) -->

<svg
   width="8.4666662mm"
   height="8.4666662mm"
   viewBox="0 0 8.4666662 8.4666662"
   version="1.1"
   id="svg1"
   xml:space="preserve"
   sodipodi:docname="export.svg"
   inkscape:version="1.4.2 (ebf0e94, 2025-05-08)"
   xmlns:inkscape="http://www.inkscape.org/namespaces/inkscape"
   xmlns:sodipodi="http://sodipodi.sourceforge.net/DTD/sodipodi-0.dtd"
   xmlns="http://www.w3.org/2000/svg"
   xmlns:svg="http://www.w3.org/2000/svg"><sodipodi:namedview
     id="namedview1"
     pagecolor="#505050"
     bordercolor="#eeeeee"
     borderopacity="1"
     inkscape:showpageshadow="0"
     inkscape:pageopacity="0"
     inkscape:pagecheckerboard="0"
     inkscape:deskcolor="#505050"
     inkscape:document-units="mm"
     inkscape:zoom="25.187501"
     inkscape:cx="15.999999"
     inkscape:cy="15.999999"
     inkscape:window-width="1920"
     inkscape:window-height="1008"
     inkscape:window-x="0"
     inkscape:window-y="0"
     inkscape:window-maximized="1"
     inkscape:current-layer="svg1" /><defs
     id="defs1"><marker
       style="overflow:visible"
       id="ConcaveTriangle"
       refX="0"
       refY="0"
       orient="auto-start-reverse"
       markerWidth="1"
       markerHeight="1"
       viewBox="0 0 1 1"
       preserveAspectRatio="xMidYMid"><path
         d="M -1.4,-2.8 6.3,0 -1.4,2.8 C 0,1.169 0,-1.162 -1.4,-2.8 Z"
         style="fill:context-stroke;fill-rule:evenodd;stroke:none;stroke-width:0.7"
         id="path16" /></marker></defs><path
     id="path3"
     style="baseline-shift:baseline;display:inline;overflow:visible;vector-effect:none;fill:#000080;stroke-linecap:round;enable-background:accumulate;stop-color:#000000"
     d="M 3.7920166 1.7487305 C 4.0925854 1.9442681 4.3137371 2.2132309 4.4441732 2.517159 C 3.5032589 2.8182272 2.7665779 3.2907882 2.2556763 3.9377441 C 1.7187326 4.6176771 1.4381988 5.4843079 1.4040487 6.5117472 A 0.2 0.2 0 0 0 1.5978353 6.7169027 A 0.2 0.2 0 0 0 1.8029907 6.5236328 C 1.8349806 5.5611851 2.0930919 4.7901892 2.5703857 4.185791 C 3.0230198 3.6126194 3.6796218 3.184233 4.5578613 2.9021484 C 4.612626 3.2273758 4.572429 3.5719414 4.4260864 3.8974365 L 7.0631348 1.9518188 L 3.7920166 1.7487305 z "
     inkscape:export-filename="../png/export.png"
     inkscape:export-xdpi="96"
     inkscape:export-ydpi="96" /></svg>
