<?xml version="1.0" encoding="UTF-8" standalone="no"?>
<!-- Created with Inkscape (http://www.inkscape.org/) -->

<svg
   width="610mm"
   height="610mm"
   viewBox="0 0 610 610"
   version="1.1"
   id="svg1"
   inkscape:version="1.4.2 (1:1.4.2+202505120737+ebf0e940d0)"
   sodipodi:docname="icon.svg"
   inkscape:export-filename="../png/icon.png"
   inkscape:export-xdpi="1.3324591"
   inkscape:export-ydpi="1.3324591"
   xmlns:inkscape="http://www.inkscape.org/namespaces/inkscape"
   xmlns:sodipodi="http://sodipodi.sourceforge.net/DTD/sodipodi-0.dtd"
   xmlns="http://www.w3.org/2000/svg"
   xmlns:svg="http://www.w3.org/2000/svg">
  <sodipodi:namedview
     id="namedview1"
     pagecolor="#393939"
     bordercolor="#000000"
     borderopacity="0.25"
     inkscape:showpageshadow="2"
     inkscape:pageopacity="0.0"
     inkscape:pagecheckerboard="false"
     inkscape:deskcolor="#393939"
     inkscape:document-units="mm"
     inkscape:zoom="0.25165631"
     inkscape:cx="874.20817"
     inkscape:cy="923.87909"
     inkscape:window-width="1920"
     inkscape:window-height="1007"
     inkscape:window-x="0"
     inkscape:window-y="0"
     inkscape:window-maximized="1"
     inkscape:current-layer="layer1" />
  <defs
     id="defs1" />
  <g
     inkscape:label="Capa 1"
     inkscape:groupmode="layer"
     id="layer1"
     transform="translate(159.26718,65.125162)">
    <g
       id="g1"
       transform="matrix(0.8918774,0,0,0.8918774,15.757012,25.93589)">
      <path
         id="path38"
         style="baseline-shift:baseline;display:inline;overflow:visible;fill:#ffff00;stroke:#7b9196;stroke-width:14.3945;stroke-linecap:round;stroke-dasharray:none;stroke-opacity:1;enable-background:accumulate;stop-color:#000000"
         d="m 296.92932,-33.283998 a 11.301763,11.301763 0 0 0 -2.93083,0.386809 11.301763,11.301763 0 0 0 -6.85831,5.266515 L 234.4353,63.6605 A 47.148644,47.148644 0 0 0 221.33849,61.805813 47.148644,47.148644 0 0 0 175.5665,97.644915 H 115.91406 A 47.148644,47.148644 0 0 0 70.141966,61.805813 47.148644,47.148644 0 0 0 57.045157,63.6605 L 4.330395,-27.630674 a 11.301763,11.301763 0 0 0 -15.427571,-4.140815 11.301763,11.301763 0 0 0 -4.140825,15.442493 l 52.704782,91.296107 a 47.148644,47.148644 0 0 0 -14.470527,33.984419 47.148644,47.148644 0 0 0 14.470527,33.9893 l -29.8237261,51.6584 a 47.148644,47.148644 0 0 0 -13.0968099,-1.85469 47.148644,47.148644 0 0 0 -45.77209,35.8391 H -156.65524 a 11.301763,11.301763 0 0 0 -11.30168,11.30172 11.301763,11.301763 0 0 0 11.30168,11.30162 h 105.424501 a 47.148644,47.148644 0 0 0 45.776984,35.85398 47.148644,47.148644 0 0 0 13.1018,-1.85968 l 29.818736,51.65849 a 47.148644,47.148644 0 0 0 -14.470527,33.98931 47.148644,47.148644 0 0 0 14.470527,33.98931 l -52.704782,91.3011 a 11.301763,11.301763 0 0 0 4.140825,15.42757 11.301763,11.301763 0 0 0 15.427571,-4.12595 L 57.045157,416.125 a 47.148644,47.148644 0 0 0 13.096809,1.85469 47.148644,47.148644 0 0 0 45.776984,-35.85388 h 59.64256 a 47.148644,47.148644 0 0 0 45.77698,35.85388 47.148644,47.148644 0 0 0 13.09681,-1.85469 l 52.70488,91.29611 a 11.301763,11.301763 0 0 0 15.44244,4.12595 11.301763,11.301763 0 0 0 4.14582,-15.42757 l -52.71976,-91.29611 a 47.148644,47.148644 0 0 0 13.1018,-22.69757 h 66.44138 a 40.581978,40.581978 0 0 0 38.97817,29.28316 40.581978,40.581978 0 0 0 40.58488,-40.57989 40.581978,40.581978 0 0 0 -40.58488,-40.57989 40.581978,40.581978 0 0 0 -9.70489,1.17527 l -33.21565,-57.53991 a 47.148644,47.148644 0 0 0 13.1018,-22.69757 h 105.40956 a 11.301763,11.301763 0 0 0 11.30172,-11.30162 11.301763,11.301763 0 0 0 -11.30172,-11.30172 H 342.7063 a 47.148644,47.148644 0 0 0 -45.77199,-35.8391 47.148644,47.148644 0 0 0 -13.09691,1.85469 l -29.82373,-51.6584 a 47.148644,47.148644 0 0 0 14.47053,-33.9893 47.148644,47.148644 0 0 0 -14.47053,-33.984419 l 52.71477,-91.296107 a 11.301763,11.301763 0 0 0 -4.14582,-15.442493 11.301763,11.301763 0 0 0 -5.6533,-1.512509 z M 115.91895,120.25315 h 59.64256 a 47.148644,47.148644 0 0 0 45.77698,35.84898 47.148644,47.148644 0 0 0 13.09681,-1.85469 l 29.82382,51.65351 a 47.148644,47.148644 0 0 0 -14.47552,33.9893 47.148644,47.148644 0 0 0 14.47053,33.98941 l -29.81883,51.6534 a 47.148644,47.148644 0 0 0 -13.09681,-1.85468 47.148644,47.148644 0 0 0 -45.77698,35.84409 H 115.91895 A 47.148644,47.148644 0 0 0 70.141966,323.67838 47.148644,47.148644 0 0 0 57.050051,325.53306 L 27.22143,273.87966 A 47.148644,47.148644 0 0 0 41.691958,239.89025 47.148644,47.148644 0 0 0 27.21644,205.90095 l 29.828717,-51.65351 a 47.148644,47.148644 0 0 0 13.096809,1.85469 47.148644,47.148644 0 0 0 45.776984,-35.84898 z m 167.91346,164.93312 a 47.148644,47.148644 0 0 0 13.1019,1.85469 47.148644,47.148644 0 0 0 13.09681,-1.85469 l 33.22563,57.53981 a 40.581978,40.581978 0 0 0 -9.6999,16.79639 h -66.44637 a 47.148644,47.148644 0 0 0 -13.1018,-22.68769 z" />
      <path
         id="path34"
         style="baseline-shift:baseline;display:inline;overflow:visible;vector-effect:none;fill:#a00602;stroke-width:9.59635;stroke-linecap:round;enable-background:accumulate;stop-color:#000000"
         d="m 296.93431,228.58863 a 11.301763,11.301763 0 0 0 -5.65341,1.51248 11.301763,11.301763 0 0 0 -4.14072,15.44744 l 56.11657,97.17753 a 40.581978,40.581978 0 0 0 -9.6999,16.79639 H 221.3335 a 11.301763,11.301763 0 0 0 -11.30162,11.30162 11.301763,11.301763 0 0 0 11.30162,11.30172 h 112.21836 a 40.581978,40.581978 0 0 0 38.97817,29.28316 40.581978,40.581978 0 0 0 40.58488,-40.57989 40.581978,40.581978 0 0 0 -40.58488,-40.57989 40.581978,40.581978 0 0 0 -9.70489,1.17527 l -56.0967,-97.17753 a 11.301763,11.301763 0 0 0 -9.79413,-5.6583 z" />
      <path
         id="path10"
         style="baseline-shift:baseline;display:inline;overflow:visible;vector-effect:none;fill:#061b2e;stroke-width:9.59635;stroke-linecap:round;enable-background:accumulate;stop-color:#000000"
         d="m 296.92932,-33.283998 a 11.301763,11.301763 0 0 0 -2.93083,0.386809 11.301763,11.301763 0 0 0 -6.85831,5.266515 L 234.4353,63.6605 A 47.148644,47.148644 0 0 0 221.33849,61.805813 47.148644,47.148644 0 0 0 175.5665,97.644915 H 115.91406 A 47.148644,47.148644 0 0 0 70.141966,61.805813 47.148644,47.148644 0 0 0 57.045157,63.6605 L 4.330395,-27.630674 a 11.301763,11.301763 0 0 0 -15.427571,-4.140815 11.301763,11.301763 0 0 0 -4.140825,15.442493 l 52.704782,91.296107 a 47.148644,47.148644 0 0 0 -14.470527,33.984419 47.148644,47.148644 0 0 0 14.470527,33.9893 l -29.8237261,51.6584 a 47.148644,47.148644 0 0 0 -13.0968099,-1.85469 47.148644,47.148644 0 0 0 -45.77209,35.8391 H -156.65524 a 11.301763,11.301763 0 0 0 -11.30168,11.30172 11.301763,11.301763 0 0 0 11.30168,11.30162 h 105.424501 a 47.148644,47.148644 0 0 0 45.776984,35.85398 47.148644,47.148644 0 0 0 13.1018,-1.85968 l 29.818736,51.65849 a 47.148644,47.148644 0 0 0 -14.470527,33.98931 47.148644,47.148644 0 0 0 14.470527,33.98931 l -52.704782,91.3011 a 11.301763,11.301763 0 0 0 4.140825,15.42757 11.301763,11.301763 0 0 0 15.427571,-4.12595 L 57.045157,416.125 a 47.148644,47.148644 0 0 0 13.096809,1.85469 47.148644,47.148644 0 0 0 45.776984,-35.85388 h 59.64256 a 47.148644,47.148644 0 0 0 45.77698,35.85388 47.148644,47.148644 0 0 0 13.09681,-1.85469 l 52.70488,91.29611 a 11.301763,11.301763 0 0 0 15.44244,4.12595 11.301763,11.301763 0 0 0 4.14582,-15.42757 l -52.71976,-91.29611 a 47.148644,47.148644 0 0 0 14.47552,-33.9943 47.148644,47.148644 0 0 0 -14.47552,-33.9943 l 29.82373,-51.64851 a 47.148644,47.148644 0 0 0 13.1019,1.85469 47.148644,47.148644 0 0 0 45.77698,-35.85398 h 105.40956 a 11.301763,11.301763 0 0 0 11.30172,-11.30162 11.301763,11.301763 0 0 0 -11.30172,-11.30172 H 342.7063 a 47.148644,47.148644 0 0 0 -45.77199,-35.8391 47.148644,47.148644 0 0 0 -13.09691,1.85469 l -29.82373,-51.6584 a 47.148644,47.148644 0 0 0 14.47053,-33.9893 47.148644,47.148644 0 0 0 -14.47053,-33.984419 l 52.71477,-91.296107 a 11.301763,11.301763 0 0 0 -4.14582,-15.442493 11.301763,11.301763 0 0 0 -5.6533,-1.512509 z M 115.91895,120.25315 h 59.64256 a 47.148644,47.148644 0 0 0 45.77698,35.84898 47.148644,47.148644 0 0 0 13.09681,-1.85469 l 29.82382,51.65351 a 47.148644,47.148644 0 0 0 -14.47552,33.9893 47.148644,47.148644 0 0 0 14.47053,33.98941 l -29.81883,51.6534 a 47.148644,47.148644 0 0 0 -13.09681,-1.85468 47.148644,47.148644 0 0 0 -45.77698,35.84409 H 115.91895 A 47.148644,47.148644 0 0 0 70.141966,323.67838 47.148644,47.148644 0 0 0 57.050051,325.53306 L 27.22143,273.87966 A 47.148644,47.148644 0 0 0 41.691958,239.89025 47.148644,47.148644 0 0 0 27.21644,205.90095 l 29.828717,-51.65351 a 47.148644,47.148644 0 0 0 13.096809,1.85469 47.148644,47.148644 0 0 0 45.776984,-35.84898 z"
         inkscape:export-filename="icon.svg"
         inkscape:export-xdpi="1000"
         inkscape:export-ydpi="1000" />
    </g>
  </g>
</svg>
