<?xml version="1.0" encoding="UTF-8" standalone="no"?>
<!-- Created with Inkscape (http://www.inkscape.org/) -->

<svg
   width="8.4666662mm"
   height="8.4666662mm"
   viewBox="0 0 8.4666662 8.4666662"
   version="1.1"
   id="svg1"
   xml:space="preserve"
   sodipodi:docname="lock.svg"
   inkscape:version="1.4.2 (1:1.4.2+202505120737+ebf0e940d0)"
   inkscape:export-filename="../png/lock.png"
   inkscape:export-xdpi="9000"
   inkscape:export-ydpi="9000"
   xmlns:inkscape="http://www.inkscape.org/namespaces/inkscape"
   xmlns:sodipodi="http://sodipodi.sourceforge.net/DTD/sodipodi-0.dtd"
   xmlns="http://www.w3.org/2000/svg"
   xmlns:svg="http://www.w3.org/2000/svg"><sodipodi:namedview
     id="namedview1"
     pagecolor="#ffffff"
     bordercolor="#000000"
     borderopacity="0.25"
     inkscape:showpageshadow="2"
     inkscape:pageopacity="0.0"
     inkscape:pagecheckerboard="0"
     inkscape:deskcolor="#d1d1d1"
     inkscape:document-units="mm"
     inkscape:zoom="11.313709"
     inkscape:cx="8.6178639"
     inkscape:cy="20.727068"
     inkscape:window-width="1920"
     inkscape:window-height="1007"
     inkscape:window-x="0"
     inkscape:window-y="0"
     inkscape:window-maximized="1"
     inkscape:current-layer="g1" /><defs
     id="defs1" /><g
     id="g97"
     transform="translate(0.1366078,0.09699266)"><g
       id="g1"
       transform="translate(-2.742336,-2.1023859)"><g
         id="g2"
         transform="translate(0,-0.04677224)"><path
           id="path3"
           style="fill:#000000;stroke-width:0.248622"
           d="m 6.8033428,2.8300954 c -0.5102826,0.0058 -1.0042195,0.2171239 -1.3982477,0.6194161 -0.367718,0.375429 -0.5424194,0.8464871 -0.5424221,1.4622216 -9e-7,0.2419765 -0.00159,0.3618809 -0.034932,0.4466056 h 0.5618799 v -0.00502 h -7.233e-4 l 7.235e-4,-0.2220073 7.234e-4,-0.2220325 c 0.00304,-0.9357928 0.595094,-1.5501367 1.4869906,-1.5430261 0.8116553,0.00646 1.3745723,0.6003085 1.4527233,1.532489 l 0.037697,0.4595966 H 8.9201735 C 8.888985,5.2678185 8.8741055,5.1253339 8.855794,4.8658599 8.7918127,3.9592376 8.4435753,3.4002996 7.7214391,3.044795 7.4215056,2.8971379 7.1095125,2.8266136 6.8033428,2.8300954 Z"
           sodipodi:nodetypes="ssscccccsccccsss" /><path
           id="path2"
           style="fill:#000000;stroke-width:0.248622"
           d="M 4.8277413,5.4126043 C 4.7973654,5.4897955 4.7406338,5.537768 4.6347512,5.622252 4.2939848,5.8941523 4.2586209,6.1049741 4.2824612,7.7217309 4.3059511,9.3146366 4.3261873,9.3894087 4.8014993,9.6359274 5.0051154,9.7415373 5.2127029,9.7511355 6.9347841,9.7346021 8.7017252,9.7176442 8.8564615,9.706706 9.0323285,9.5876295 9.3666456,9.3612646 9.4015647,9.1711142 9.4015647,7.5783379 9.4015647,6.0090106 9.3613335,5.7766477 9.054933,5.5758882 8.9881252,5.5321143 8.947767,5.4926982 8.9201717,5.4126043 Z m 2.0273639,1.3782993 c 0.1307184,-0.00224 0.2588681,0.036955 0.3325146,0.1183342 0.1358162,0.1500757 0.142139,0.559664 0.010278,0.6691001 -0.06285,0.052161 -0.098675,0.1975767 -0.098675,0.4004723 0,0.2476025 -0.028409,0.3336555 -0.1273128,0.3865871 -0.1645555,0.088067 -0.173356,0.0871 -0.2956493,-0.035192 C 6.6148134,8.2687583 6.5729671,8.113672 6.5729671,7.9479783 6.5729671,7.7946679 6.52949,7.6118475 6.4763711,7.5416166 6.3391177,7.3601524 6.35332,7.0744082 6.5072031,6.9205258 6.5911914,6.8365415 6.7243868,6.7930661 6.8551052,6.7909036 Z" /></g></g></g></svg>
