<?xml version="1.0" encoding="UTF-8" standalone="no"?>
<!-- Created with Inkscape (http://www.inkscape.org/) -->

<svg
   width="8.4666662mm"
   height="8.4666662mm"
   viewBox="0 0 8.4666662 8.4666662"
   version="1.1"
   id="svg1"
   xml:space="preserve"
   xmlns="http://www.w3.org/2000/svg"
   xmlns:svg="http://www.w3.org/2000/svg"><defs
     id="defs1" /><g
     id="layer1"
     transform="translate(-38.322578,-63.748138)"><path
       id="rect17-2"
       style="fill:#800000;fill-opacity:1;stroke:none;stroke-width:0.406667;stroke-linecap:round;stroke-dasharray:none;stroke-opacity:1"
       d="m 39.480646,64.566759 c -0.08665,10e-7 -0.173379,0.03334 -0.239778,0.09974 -0.132798,0.132798 -0.132798,0.34676 0,0.479557 l 2.835486,2.835487 -2.835486,2.835486 c -0.132798,0.132797 -0.132798,0.346759 0,0.479557 0.132797,0.132797 0.346759,0.132797 0.479557,0 l 2.835486,-2.835486 2.835486,2.835486 c 0.132798,0.132797 0.34676,0.132797 0.479557,0 0.132798,-0.132798 0.132798,-0.34676 0,-0.479557 l -2.835486,-2.835486 2.835486,-2.835487 c 0.132798,-0.132797 0.132798,-0.346759 0,-0.479557 -0.132798,-0.132798 -0.346759,-0.132797 -0.479557,0 l -2.835486,2.835487 -2.835486,-2.835487 c -0.0664,-0.0664 -0.153124,-0.09974 -0.239779,-0.09974 z" /></g></svg>
